{
    "asset" : {
        "generator" : "Khronos glTF Blender I/O v3.2.43",
        "version" : "2.0"
    },
    "scene" : 0,
    "scenes" : [
        {
            "name" : "Scene",
            "nodes" : [
                0
            ]
        }
    ],
    "nodes" : [
        {
            "mesh" : 0,
            "name" : "Object_2.001"
        }
    ],
    "animations" : [
        {
            "channels" : [
                {
                    "sampler" : 0,
                    "target" : {
                        "node" : 0,
                        "path" : "translation"
                    }
                },
                {
                    "sampler" : 1,
                    "target" : {
                        "node" : 0,
                        "path" : "rotation"
                    }
                },
                {
                    "sampler" : 2,
                    "target" : {
                        "node" : 0,
                        "path" : "scale"
                    }
                }
            ],
            "name" : "Object_2.001",
            "samplers" : [
                {
                    "input" : 4,
                    "interpolation" : "LINEAR",
                    "output" : 5
                },
                {
                    "input" : 4,
                    "interpolation" : "LINEAR",
                    "output" : 6
                },
                {
                    "input" : 4,
                    "interpolation" : "LINEAR",
                    "output" : 7
                }
            ]
        }
    ],
    "materials" : [
        {
            "doubleSided" : true,
            "name" : "Ikona_Bogomater",
            "normalTexture" : {
                "index" : 0
            },
            "occlusionTexture" : {
                "index" : 1
            },
            "pbrMetallicRoughness" : {
                "baseColorTexture" : {
                    "index" : 2
                },
                "metallicRoughnessTexture" : {
                    "index" : 1
                }
            }
        }
    ],
    "meshes" : [
        {
            "name" : "Object_0.001",
            "primitives" : [
                {
                    "attributes" : {
                        "POSITION" : 0,
                        "NORMAL" : 1,
                        "TEXCOORD_0" : 2
                    },
                    "indices" : 3,
                    "material" : 0
                }
            ]
        }
    ],
    "textures" : [
        {
            "sampler" : 0,
            "source" : 0
        },
        {
            "sampler" : 0,
            "source" : 1
        },
        {
            "sampler" : 0,
            "source" : 2
        }
    ],
    "images" : [
        {
            "bufferView" : 4,
            "mimeType" : "image/png",
            "name" : "Image_0"
        },
        {
            "bufferView" : 5,
            "mimeType" : "image/png",
            "name" : "Image_1"
        },
        {
            "bufferView" : 6,
            "mimeType" : "image/png",
            "name" : "Image_2"
        }
    ],
    "accessors" : [
        {
            "bufferView" : 0,
            "componentType" : 5126,
            "count" : 8002,
            "max" : [
                0.4721543490886688,
                0.03341612219810486,
                0.6006264090538025
            ],
            "min" : [
                -0.4728150963783264,
                -0.06621360778808594,
                -0.5980422496795654
            ],
            "type" : "VEC3"
        },
        {
            "bufferView" : 1,
            "componentType" : 5126,
            "count" : 8002,
            "type" : "VEC3"
        },
        {
            "bufferView" : 2,
            "componentType" : 5126,
            "count" : 8002,
            "type" : "VEC2"
        },
        {
            "bufferView" : 3,
            "componentType" : 5123,
            "count" : 47076,
            "type" : "SCALAR"
        },
        {
            "bufferView" : 7,
            "componentType" : 5126,
            "count" : 402,
            "max" : [
                16.708333333333332
            ],
            "min" : [
                0
            ],
            "type" : "SCALAR"
        },
        {
            "bufferView" : 8,
            "componentType" : 5126,
            "count" : 402,
            "type" : "VEC3"
        },
        {
            "bufferView" : 9,
            "componentType" : 5126,
            "count" : 402,
            "type" : "VEC4"
        },
        {
            "bufferView" : 10,
            "componentType" : 5126,
            "count" : 402,
            "type" : "VEC3"
        }
    ],
    "bufferViews" : [
        {
            "buffer" : 0,
            "byteLength" : 96024,
            "byteOffset" : 0
        },
        {
            "buffer" : 0,
            "byteLength" : 96024,
            "byteOffset" : 96024
        },
        {
            "buffer" : 0,
            "byteLength" : 64016,
            "byteOffset" : 192048
        },
        {
            "buffer" : 0,
            "byteLength" : 94152,
            "byteOffset" : 256064
        },
        {
            "buffer" : 0,
            "byteLength" : 225905,
            "byteOffset" : 350216
        },
        {
            "buffer" : 0,
            "byteLength" : 26466,
            "byteOffset" : 576124
        },
        {
            "buffer" : 0,
            "byteLength" : 467123,
            "byteOffset" : 602592
        },
        {
            "buffer" : 0,
            "byteLength" : 1608,
            "byteOffset" : 1069716
        },
        {
            "buffer" : 0,
            "byteLength" : 4824,
            "byteOffset" : 1071324
        },
        {
            "buffer" : 0,
            "byteLength" : 6432,
            "byteOffset" : 1076148
        },
        {
            "buffer" : 0,
            "byteLength" : 4824,
            "byteOffset" : 1082580
        }
    ],
    "samplers" : [
        {
            "magFilter" : 9729,
            "minFilter" : 9987
        }
    ],
    "buffers" : [
        {
            "byteLength" : 1087404,
            "uri" : "data:application/octet-stream;base64,"
        }
    ]
}
