{
    "asset" : {
        "generator" : "Khronos glTF Blender I/O v3.2.43",
        "version" : "2.0"
    },
    "scene" : 0,
    "scenes" : [
        {
            "name" : "Scene",
            "nodes" : [
                0,
                1,
                2,
                3,
                4,
                5,
                6,
                7,
                8,
                9,
                10,
                11,
                12,
                13,
                14,
                15,
                16,
                17
            ]
        }
    ],
    "nodes" : [
        {
            "name" : "transform1"
        },
        {
            "name" : "transform57"
        },
        {
            "name" : "transform2"
        },
        {
            "name" : "transform43"
        },
        {
            "name" : "transform46"
        },
        {
            "name" : "transform47"
        },
        {
            "name" : "transform48"
        },
        {
            "name" : "transform44"
        },
        {
            "name" : "transform45"
        },
        {
            "name" : "transform52"
        },
        {
            "name" : "transform53"
        },
        {
            "name" : "transform49"
        },
        {
            "name" : "transform50"
        },
        {
            "name" : "transform51"
        },
        {
            "name" : "transform54"
        },
        {
            "name" : "transform55"
        },
        {
            "name" : "transform56"
        },
        {
            "mesh" : 0,
            "name" : "pCube10"
        }
    ],
    "materials" : [
        {
            "doubleSided" : true,
            "name" : "phong1",
            "pbrMetallicRoughness" : {
                "baseColorFactor" : [
                    0.01769999973475933,
                    0.07919999957084656,
                    0,
                    1
                ],
                "metallicFactor" : 0.5,
                "roughnessFactor" : 0.5527864098548889
            }
        },
        {
            "doubleSided" : true,
            "name" : "phong2",
            "pbrMetallicRoughness" : {
                "baseColorFactor" : [
                    0.08879999816417694,
                    0.3368000090122223,
                    0.017400000244379044,
                    1
                ],
                "metallicFactor" : 0.5,
                "roughnessFactor" : 0.5527864098548889
            }
        }
    ],
    "meshes" : [
        {
            "name" : "Mesh.115",
            "primitives" : [
                {
                    "attributes" : {
                        "POSITION" : 0,
                        "NORMAL" : 1,
                        "TEXCOORD_0" : 2
                    },
                    "indices" : 3,
                    "material" : 0
                },
                {
                    "attributes" : {
                        "POSITION" : 4,
                        "NORMAL" : 5,
                        "TEXCOORD_0" : 6
                    },
                    "indices" : 7,
                    "material" : 1
                }
            ]
        }
    ],
    "accessors" : [
        {
            "bufferView" : 0,
            "componentType" : 5126,
            "count" : 26581,
            "max" : [
                2.3110835552215576,
                0.30766937136650085,
                1.6742463111877441
            ],
            "min" : [
                -1.6137031316757202,
                -0.1394404023885727,
                -2.5869510173797607
            ],
            "type" : "VEC3"
        },
        {
            "bufferView" : 1,
            "componentType" : 5126,
            "count" : 26581,
            "type" : "VEC3"
        },
        {
            "bufferView" : 2,
            "componentType" : 5126,
            "count" : 26581,
            "type" : "VEC2"
        },
        {
            "bufferView" : 3,
            "componentType" : 5123,
            "count" : 140232,
            "type" : "SCALAR"
        },
        {
            "bufferView" : 4,
            "componentType" : 5126,
            "count" : 17121,
            "max" : [
                1.7925069332122803,
                0.2712971866130829,
                1.6020050048828125
            ],
            "min" : [
                -1.2829666137695312,
                -0.1433587372303009,
                -2.3774263858795166
            ],
            "type" : "VEC3"
        },
        {
            "bufferView" : 5,
            "componentType" : 5126,
            "count" : 17121,
            "type" : "VEC3"
        },
        {
            "bufferView" : 6,
            "componentType" : 5126,
            "count" : 17121,
            "type" : "VEC2"
        },
        {
            "bufferView" : 7,
            "componentType" : 5123,
            "count" : 88920,
            "type" : "SCALAR"
        }
    ],
    "bufferViews" : [
        {
            "buffer" : 0,
            "byteLength" : 318972,
            "byteOffset" : 0
        },
        {
            "buffer" : 0,
            "byteLength" : 318972,
            "byteOffset" : 318972
        },
        {
            "buffer" : 0,
            "byteLength" : 212648,
            "byteOffset" : 637944
        },
        {
            "buffer" : 0,
            "byteLength" : 280464,
            "byteOffset" : 850592
        },
        {
            "buffer" : 0,
            "byteLength" : 205452,
            "byteOffset" : 1131056
        },
        {
            "buffer" : 0,
            "byteLength" : 205452,
            "byteOffset" : 1336508
        },
        {
            "buffer" : 0,
            "byteLength" : 136968,
            "byteOffset" : 1541960
        },
        {
            "buffer" : 0,
            "byteLength" : 177840,
            "byteOffset" : 1678928
        }
    ],
    "buffers" : [
        {
            "byteLength" : 1856768,
            "uri" : "data:application/octet-stream;base64,"
        }
    ]
}
