{
    "asset" : {
        "generator" : "Khronos glTF Blender I/O v3.2.43",
        "version" : "2.0"
    },
    "scene" : 0,
    "scenes" : [
        {
            "name" : "Scene",
            "nodes" : [
                0,
                1,
                2,
                3,
                4
            ]
        }
    ],
    "nodes" : [
        {
            "mesh" : 0,
            "name" : "Line003"
        },
        {
            "mesh" : 1,
            "name" : "Line004"
        },
        {
            "mesh" : 2,
            "name" : "Object002"
        },
        {
            "mesh" : 3,
            "name" : "Line007"
        },
        {
            "mesh" : 4,
            "name" : "Line008"
        }
    ],
    "animations" : [
        {
            "channels" : [
                {
                    "sampler" : 0,
                    "target" : {
                        "node" : 0,
                        "path" : "translation"
                    }
                },
                {
                    "sampler" : 1,
                    "target" : {
                        "node" : 0,
                        "path" : "rotation"
                    }
                },
                {
                    "sampler" : 2,
                    "target" : {
                        "node" : 0,
                        "path" : "scale"
                    }
                }
            ],
            "name" : "Line003",
            "samplers" : [
                {
                    "input" : 23,
                    "interpolation" : "LINEAR",
                    "output" : 24
                },
                {
                    "input" : 23,
                    "interpolation" : "LINEAR",
                    "output" : 25
                },
                {
                    "input" : 23,
                    "interpolation" : "LINEAR",
                    "output" : 26
                }
            ]
        },
        {
            "channels" : [
                {
                    "sampler" : 0,
                    "target" : {
                        "node" : 1,
                        "path" : "translation"
                    }
                },
                {
                    "sampler" : 1,
                    "target" : {
                        "node" : 1,
                        "path" : "rotation"
                    }
                },
                {
                    "sampler" : 2,
                    "target" : {
                        "node" : 1,
                        "path" : "scale"
                    }
                }
            ],
            "name" : "Line004",
            "samplers" : [
                {
                    "input" : 23,
                    "interpolation" : "LINEAR",
                    "output" : 27
                },
                {
                    "input" : 23,
                    "interpolation" : "LINEAR",
                    "output" : 28
                },
                {
                    "input" : 23,
                    "interpolation" : "LINEAR",
                    "output" : 29
                }
            ]
        },
        {
            "channels" : [
                {
                    "sampler" : 0,
                    "target" : {
                        "node" : 2,
                        "path" : "translation"
                    }
                },
                {
                    "sampler" : 1,
                    "target" : {
                        "node" : 2,
                        "path" : "rotation"
                    }
                },
                {
                    "sampler" : 2,
                    "target" : {
                        "node" : 2,
                        "path" : "scale"
                    }
                }
            ],
            "name" : "Object002",
            "samplers" : [
                {
                    "input" : 23,
                    "interpolation" : "LINEAR",
                    "output" : 30
                },
                {
                    "input" : 23,
                    "interpolation" : "LINEAR",
                    "output" : 31
                },
                {
                    "input" : 23,
                    "interpolation" : "LINEAR",
                    "output" : 32
                }
            ]
        },
        {
            "channels" : [
                {
                    "sampler" : 0,
                    "target" : {
                        "node" : 3,
                        "path" : "translation"
                    }
                },
                {
                    "sampler" : 1,
                    "target" : {
                        "node" : 3,
                        "path" : "rotation"
                    }
                },
                {
                    "sampler" : 2,
                    "target" : {
                        "node" : 3,
                        "path" : "scale"
                    }
                }
            ],
            "name" : "Line007",
            "samplers" : [
                {
                    "input" : 23,
                    "interpolation" : "LINEAR",
                    "output" : 33
                },
                {
                    "input" : 23,
                    "interpolation" : "LINEAR",
                    "output" : 34
                },
                {
                    "input" : 23,
                    "interpolation" : "LINEAR",
                    "output" : 35
                }
            ]
        },
        {
            "channels" : [
                {
                    "sampler" : 0,
                    "target" : {
                        "node" : 4,
                        "path" : "translation"
                    }
                },
                {
                    "sampler" : 1,
                    "target" : {
                        "node" : 4,
                        "path" : "rotation"
                    }
                },
                {
                    "sampler" : 2,
                    "target" : {
                        "node" : 4,
                        "path" : "scale"
                    }
                }
            ],
            "name" : "Line008",
            "samplers" : [
                {
                    "input" : 23,
                    "interpolation" : "LINEAR",
                    "output" : 36
                },
                {
                    "input" : 23,
                    "interpolation" : "LINEAR",
                    "output" : 37
                },
                {
                    "input" : 23,
                    "interpolation" : "LINEAR",
                    "output" : 38
                }
            ]
        }
    ],
    "materials" : [
        {
            "doubleSided" : true,
            "name" : "Saucer_1",
            "pbrMetallicRoughness" : {
                "baseColorTexture" : {
                    "index" : 0
                },
                "roughnessFactor" : 0.858578622341156
            }
        },
        {
            "doubleSided" : true,
            "name" : "Cup_1",
            "pbrMetallicRoughness" : {
                "baseColorTexture" : {
                    "index" : 1
                },
                "roughnessFactor" : 0.858578622341156
            }
        },
        {
            "doubleSided" : true,
            "name" : "Cup",
            "pbrMetallicRoughness" : {
                "baseColorFactor" : [
                    0.5879999995231628,
                    0.5879999995231628,
                    0.5879999995231628,
                    1
                ],
                "roughnessFactor" : 0.5527864098548889
            }
        },
        {
            "doubleSided" : true,
            "name" : "Tea",
            "normalTexture" : {
                "index" : 2
            },
            "pbrMetallicRoughness" : {
                "baseColorTexture" : {
                    "index" : 3
                },
                "roughnessFactor" : 0
            }
        }
    ],
    "meshes" : [
        {
            "name" : "Mesh.059",
            "primitives" : [
                {
                    "attributes" : {
                        "POSITION" : 0,
                        "NORMAL" : 1,
                        "TEXCOORD_0" : 2
                    },
                    "indices" : 3,
                    "material" : 0
                }
            ]
        },
        {
            "name" : "Mesh.060",
            "primitives" : [
                {
                    "attributes" : {
                        "POSITION" : 4,
                        "NORMAL" : 5,
                        "TEXCOORD_0" : 6
                    },
                    "indices" : 7,
                    "material" : 1
                },
                {
                    "attributes" : {
                        "POSITION" : 8,
                        "NORMAL" : 9,
                        "TEXCOORD_0" : 10
                    },
                    "indices" : 11,
                    "material" : 2
                }
            ]
        },
        {
            "name" : "Mesh.061",
            "primitives" : [
                {
                    "attributes" : {
                        "POSITION" : 12,
                        "NORMAL" : 13,
                        "TEXCOORD_0" : 14
                    },
                    "indices" : 15,
                    "material" : 3
                }
            ]
        },
        {
            "name" : "Mesh.062",
            "primitives" : [
                {
                    "attributes" : {
                        "POSITION" : 16,
                        "NORMAL" : 17,
                        "TEXCOORD_0" : 18
                    },
                    "indices" : 3,
                    "material" : 0
                }
            ]
        },
        {
            "name" : "Mesh.063",
            "primitives" : [
                {
                    "attributes" : {
                        "POSITION" : 19,
                        "NORMAL" : 20,
                        "TEXCOORD_0" : 21
                    },
                    "indices" : 22,
                    "material" : 1
                }
            ]
        }
    ],
    "textures" : [
        {
            "sampler" : 0,
            "source" : 0
        },
        {
            "sampler" : 0,
            "source" : 1
        },
        {
            "sampler" : 0,
            "source" : 2
        },
        {
            "sampler" : 0,
            "source" : 3
        }
    ],
    "images" : [
        {
            "bufferView" : 4,
            "mimeType" : "image/jpeg",
            "name" : "Image_0"
        },
        {
            "bufferView" : 9,
            "mimeType" : "image/jpeg",
            "name" : "Image_1"
        },
        {
            "bufferView" : 18,
            "mimeType" : "image/jpeg",
            "name" : "Image_2"
        },
        {
            "bufferView" : 19,
            "mimeType" : "image/jpeg",
            "name" : "Image_3"
        }
    ],
    "accessors" : [
        {
            "bufferView" : 0,
            "componentType" : 5126,
            "count" : 3394,
            "max" : [
                0.09391990303993225,
                0.0034671761095523834,
                0.2993379235267639
            ],
            "min" : [
                -0.46485480666160583,
                -0.06692411005496979,
                -0.2594284117221832
            ],
            "type" : "VEC3"
        },
        {
            "bufferView" : 1,
            "componentType" : 5126,
            "count" : 3394,
            "type" : "VEC3"
        },
        {
            "bufferView" : 2,
            "componentType" : 5126,
            "count" : 3394,
            "type" : "VEC2"
        },
        {
            "bufferView" : 3,
            "componentType" : 5123,
            "count" : 19254,
            "type" : "SCALAR"
        },
        {
            "bufferView" : 5,
            "componentType" : 5126,
            "count" : 444,
            "max" : [
                0.02986915409564972,
                0.18351736664772034,
                0.1915646344423294
            ],
            "min" : [
                -0.08235076069831848,
                0.06320832669734955,
                0.10031016170978546
            ],
            "type" : "VEC3"
        },
        {
            "bufferView" : 6,
            "componentType" : 5126,
            "count" : 444,
            "type" : "VEC3"
        },
        {
            "bufferView" : 7,
            "componentType" : 5126,
            "count" : 444,
            "type" : "VEC2"
        },
        {
            "bufferView" : 8,
            "componentType" : 5123,
            "count" : 2292,
            "type" : "SCALAR"
        },
        {
            "bufferView" : 10,
            "componentType" : 5126,
            "count" : 5476,
            "max" : [
                -0.00020498037338256836,
                0.1805603802204132,
                0.20523621141910553
            ],
            "min" : [
                -0.37076228857040405,
                -0.056593477725982666,
                -0.16532662510871887
            ],
            "type" : "VEC3"
        },
        {
            "bufferView" : 11,
            "componentType" : 5126,
            "count" : 5476,
            "type" : "VEC3"
        },
        {
            "bufferView" : 12,
            "componentType" : 5126,
            "count" : 5476,
            "type" : "VEC2"
        },
        {
            "bufferView" : 13,
            "componentType" : 5123,
            "count" : 31308,
            "type" : "SCALAR"
        },
        {
            "bufferView" : 14,
            "componentType" : 5126,
            "count" : 1560,
            "max" : [
                -0.041597142815589905,
                0.11056306213140488,
                0.16382728517055511
            ],
            "min" : [
                -0.3293377459049225,
                -0.027965623885393143,
                -0.12391768395900726
            ],
            "type" : "VEC3"
        },
        {
            "bufferView" : 15,
            "componentType" : 5126,
            "count" : 1560,
            "type" : "VEC3"
        },
        {
            "bufferView" : 16,
            "componentType" : 5126,
            "count" : 1560,
            "type" : "VEC2"
        },
        {
            "bufferView" : 17,
            "componentType" : 5123,
            "count" : 7554,
            "type" : "SCALAR"
        },
        {
            "bufferView" : 20,
            "componentType" : 5126,
            "count" : 3394,
            "max" : [
                0.7474353909492493,
                0.003467205911874771,
                0.3006092607975006
            ],
            "min" : [
                0.18876159191131592,
                -0.06692411750555038,
                -0.25807294249534607
            ],
            "type" : "VEC3"
        },
        {
            "bufferView" : 21,
            "componentType" : 5126,
            "count" : 3394,
            "type" : "VEC3"
        },
        {
            "bufferView" : 22,
            "componentType" : 5126,
            "count" : 3394,
            "type" : "VEC2"
        },
        {
            "bufferView" : 23,
            "componentType" : 5126,
            "count" : 5920,
            "max" : [
                0.6289274096488953,
                0.29807665944099426,
                0.20376211404800415
            ],
            "min" : [
                0.2273690104484558,
                -0.05534118413925171,
                -0.14898037910461426
            ],
            "type" : "VEC3"
        },
        {
            "bufferView" : 24,
            "componentType" : 5126,
            "count" : 5920,
            "type" : "VEC3"
        },
        {
            "bufferView" : 25,
            "componentType" : 5126,
            "count" : 5920,
            "type" : "VEC2"
        },
        {
            "bufferView" : 26,
            "componentType" : 5123,
            "count" : 33600,
            "type" : "SCALAR"
        },
        {
            "bufferView" : 27,
            "componentType" : 5126,
            "count" : 321,
            "max" : [
                13.333333333333334
            ],
            "min" : [
                0
            ],
            "type" : "SCALAR"
        },
        {
            "bufferView" : 28,
            "componentType" : 5126,
            "count" : 321,
            "type" : "VEC3"
        },
        {
            "bufferView" : 29,
            "componentType" : 5126,
            "count" : 321,
            "type" : "VEC4"
        },
        {
            "bufferView" : 30,
            "componentType" : 5126,
            "count" : 321,
            "type" : "VEC3"
        },
        {
            "bufferView" : 31,
            "componentType" : 5126,
            "count" : 321,
            "type" : "VEC3"
        },
        {
            "bufferView" : 32,
            "componentType" : 5126,
            "count" : 321,
            "type" : "VEC4"
        },
        {
            "bufferView" : 33,
            "componentType" : 5126,
            "count" : 321,
            "type" : "VEC3"
        },
        {
            "bufferView" : 34,
            "componentType" : 5126,
            "count" : 321,
            "type" : "VEC3"
        },
        {
            "bufferView" : 35,
            "componentType" : 5126,
            "count" : 321,
            "type" : "VEC4"
        },
        {
            "bufferView" : 36,
            "componentType" : 5126,
            "count" : 321,
            "type" : "VEC3"
        },
        {
            "bufferView" : 37,
            "componentType" : 5126,
            "count" : 321,
            "type" : "VEC3"
        },
        {
            "bufferView" : 38,
            "componentType" : 5126,
            "count" : 321,
            "type" : "VEC4"
        },
        {
            "bufferView" : 39,
            "componentType" : 5126,
            "count" : 321,
            "type" : "VEC3"
        },
        {
            "bufferView" : 40,
            "componentType" : 5126,
            "count" : 321,
            "type" : "VEC3"
        },
        {
            "bufferView" : 41,
            "componentType" : 5126,
            "count" : 321,
            "type" : "VEC4"
        },
        {
            "bufferView" : 42,
            "componentType" : 5126,
            "count" : 321,
            "type" : "VEC3"
        }
    ],
    "bufferViews" : [
        {
            "buffer" : 0,
            "byteLength" : 40728,
            "byteOffset" : 0
        },
        {
            "buffer" : 0,
            "byteLength" : 40728,
            "byteOffset" : 40728
        },
        {
            "buffer" : 0,
            "byteLength" : 27152,
            "byteOffset" : 81456
        },
        {
            "buffer" : 0,
            "byteLength" : 38508,
            "byteOffset" : 108608
        },
        {
            "buffer" : 0,
            "byteLength" : 331042,
            "byteOffset" : 147116
        },
        {
            "buffer" : 0,
            "byteLength" : 5328,
            "byteOffset" : 478160
        },
        {
            "buffer" : 0,
            "byteLength" : 5328,
            "byteOffset" : 483488
        },
        {
            "buffer" : 0,
            "byteLength" : 3552,
            "byteOffset" : 488816
        },
        {
            "buffer" : 0,
            "byteLength" : 4584,
            "byteOffset" : 492368
        },
        {
            "buffer" : 0,
            "byteLength" : 249057,
            "byteOffset" : 496952
        },
        {
            "buffer" : 0,
            "byteLength" : 65712,
            "byteOffset" : 746012
        },
        {
            "buffer" : 0,
            "byteLength" : 65712,
            "byteOffset" : 811724
        },
        {
            "buffer" : 0,
            "byteLength" : 43808,
            "byteOffset" : 877436
        },
        {
            "buffer" : 0,
            "byteLength" : 62616,
            "byteOffset" : 921244
        },
        {
            "buffer" : 0,
            "byteLength" : 18720,
            "byteOffset" : 983860
        },
        {
            "buffer" : 0,
            "byteLength" : 18720,
            "byteOffset" : 1002580
        },
        {
            "buffer" : 0,
            "byteLength" : 12480,
            "byteOffset" : 1021300
        },
        {
            "buffer" : 0,
            "byteLength" : 15108,
            "byteOffset" : 1033780
        },
        {
            "buffer" : 0,
            "byteLength" : 40361,
            "byteOffset" : 1048888
        },
        {
            "buffer" : 0,
            "byteLength" : 76749,
            "byteOffset" : 1089252
        },
        {
            "buffer" : 0,
            "byteLength" : 40728,
            "byteOffset" : 1166004
        },
        {
            "buffer" : 0,
            "byteLength" : 40728,
            "byteOffset" : 1206732
        },
        {
            "buffer" : 0,
            "byteLength" : 27152,
            "byteOffset" : 1247460
        },
        {
            "buffer" : 0,
            "byteLength" : 71040,
            "byteOffset" : 1274612
        },
        {
            "buffer" : 0,
            "byteLength" : 71040,
            "byteOffset" : 1345652
        },
        {
            "buffer" : 0,
            "byteLength" : 47360,
            "byteOffset" : 1416692
        },
        {
            "buffer" : 0,
            "byteLength" : 67200,
            "byteOffset" : 1464052
        },
        {
            "buffer" : 0,
            "byteLength" : 1284,
            "byteOffset" : 1531252
        },
        {
            "buffer" : 0,
            "byteLength" : 3852,
            "byteOffset" : 1532536
        },
        {
            "buffer" : 0,
            "byteLength" : 5136,
            "byteOffset" : 1536388
        },
        {
            "buffer" : 0,
            "byteLength" : 3852,
            "byteOffset" : 1541524
        },
        {
            "buffer" : 0,
            "byteLength" : 3852,
            "byteOffset" : 1545376
        },
        {
            "buffer" : 0,
            "byteLength" : 5136,
            "byteOffset" : 1549228
        },
        {
            "buffer" : 0,
            "byteLength" : 3852,
            "byteOffset" : 1554364
        },
        {
            "buffer" : 0,
            "byteLength" : 3852,
            "byteOffset" : 1558216
        },
        {
            "buffer" : 0,
            "byteLength" : 5136,
            "byteOffset" : 1562068
        },
        {
            "buffer" : 0,
            "byteLength" : 3852,
            "byteOffset" : 1567204
        },
        {
            "buffer" : 0,
            "byteLength" : 3852,
            "byteOffset" : 1571056
        },
        {
            "buffer" : 0,
            "byteLength" : 5136,
            "byteOffset" : 1574908
        },
        {
            "buffer" : 0,
            "byteLength" : 3852,
            "byteOffset" : 1580044
        },
        {
            "buffer" : 0,
            "byteLength" : 3852,
            "byteOffset" : 1583896
        },
        {
            "buffer" : 0,
            "byteLength" : 5136,
            "byteOffset" : 1587748
        },
        {
            "buffer" : 0,
            "byteLength" : 3852,
            "byteOffset" : 1592884
        }
    ],
    "samplers" : [
        {
            "magFilter" : 9729,
            "minFilter" : 9987
        }
    ],
    "buffers" : [
        {
            "byteLength" : 1596736,
            "uri" : "data:application/octet-stream;base64,"
        }
    ]
}
