{
    "asset" : {
        "generator" : "Khronos glTF Blender I/O v3.2.43",
        "version" : "2.0"
    },
    "scene" : 0,
    "scenes" : [
        {
            "name" : "Scene",
            "nodes" : [
                0
            ]
        }
    ],
    "nodes" : [
        {
            "mesh" : 0,
            "name" : "\u041d\u0430\u0434\u043f\u0438\u0441\u044c"
        }
    ],
    "animations" : [
        {
            "channels" : [
                {
                    "sampler" : 0,
                    "target" : {
                        "node" : 0,
                        "path" : "translation"
                    }
                },
                {
                    "sampler" : 1,
                    "target" : {
                        "node" : 0,
                        "path" : "rotation"
                    }
                },
                {
                    "sampler" : 2,
                    "target" : {
                        "node" : 0,
                        "path" : "scale"
                    }
                }
            ],
            "name" : "\u041d\u0430\u0434\u043f\u0438\u0441\u044c",
            "samplers" : [
                {
                    "input" : 4,
                    "interpolation" : "LINEAR",
                    "output" : 5
                },
                {
                    "input" : 4,
                    "interpolation" : "LINEAR",
                    "output" : 6
                },
                {
                    "input" : 4,
                    "interpolation" : "LINEAR",
                    "output" : 7
                }
            ]
        }
    ],
    "materials" : [
        {
            "doubleSided" : true,
            "name" : "\u041d\u0430\u0434\u043f\u0438\u0441\u044c",
            "pbrMetallicRoughness" : {
                "baseColorTexture" : {
                    "index" : 0
                },
                "metallicFactor" : 0,
                "roughnessFactor" : 0.5
            }
        }
    ],
    "meshes" : [
        {
            "name" : "Plane",
            "primitives" : [
                {
                    "attributes" : {
                        "POSITION" : 0,
                        "NORMAL" : 1,
                        "TEXCOORD_0" : 2
                    },
                    "indices" : 3,
                    "material" : 0
                }
            ]
        }
    ],
    "textures" : [
        {
            "sampler" : 0,
            "source" : 0
        }
    ],
    "images" : [
        {
            "bufferView" : 4,
            "mimeType" : "image/png",
            "name" : "Image_0"
        }
    ],
    "accessors" : [
        {
            "bufferView" : 0,
            "componentType" : 5126,
            "count" : 1659,
            "max" : [
                1.0814369916915894,
                0.1534472554922104,
                0.11577582359313965
            ],
            "min" : [
                -0.9625372886657715,
                -0.10654168576002121,
                -0.17575758695602417
            ],
            "type" : "VEC3"
        },
        {
            "bufferView" : 1,
            "componentType" : 5126,
            "count" : 1659,
            "type" : "VEC3"
        },
        {
            "bufferView" : 2,
            "componentType" : 5126,
            "count" : 1659,
            "type" : "VEC2"
        },
        {
            "bufferView" : 3,
            "componentType" : 5123,
            "count" : 2088,
            "type" : "SCALAR"
        },
        {
            "bufferView" : 5,
            "componentType" : 5126,
            "count" : 242,
            "max" : [
                10.041666666666666
            ],
            "min" : [
                0
            ],
            "type" : "SCALAR"
        },
        {
            "bufferView" : 6,
            "componentType" : 5126,
            "count" : 242,
            "type" : "VEC3"
        },
        {
            "bufferView" : 7,
            "componentType" : 5126,
            "count" : 242,
            "type" : "VEC4"
        },
        {
            "bufferView" : 8,
            "componentType" : 5126,
            "count" : 242,
            "type" : "VEC3"
        }
    ],
    "bufferViews" : [
        {
            "buffer" : 0,
            "byteLength" : 19908,
            "byteOffset" : 0
        },
        {
            "buffer" : 0,
            "byteLength" : 19908,
            "byteOffset" : 19908
        },
        {
            "buffer" : 0,
            "byteLength" : 13272,
            "byteOffset" : 39816
        },
        {
            "buffer" : 0,
            "byteLength" : 4176,
            "byteOffset" : 53088
        },
        {
            "buffer" : 0,
            "byteLength" : 61100,
            "byteOffset" : 57264
        },
        {
            "buffer" : 0,
            "byteLength" : 968,
            "byteOffset" : 118364
        },
        {
            "buffer" : 0,
            "byteLength" : 2904,
            "byteOffset" : 119332
        },
        {
            "buffer" : 0,
            "byteLength" : 3872,
            "byteOffset" : 122236
        },
        {
            "buffer" : 0,
            "byteLength" : 2904,
            "byteOffset" : 126108
        }
    ],
    "samplers" : [
        {
            "magFilter" : 9729,
            "minFilter" : 9987
        }
    ],
    "buffers" : [
        {
            "byteLength" : 129012,
            "uri" : "data:application/octet-stream;base64,"
        }
    ]
}
