{
    "asset" : {
        "generator" : "Khronos glTF Blender I/O v3.2.43",
        "version" : "2.0"
    },
    "scene" : 0,
    "scenes" : [
        {
            "name" : "Scene",
            "nodes" : [
                0,
                1,
                2,
                3,
                4,
                5,
                6,
                7,
                8,
                9,
                10,
                11,
                12,
                13,
                14,
                15,
                16,
                17,
                18
            ]
        }
    ],
    "nodes" : [
        {
            "name" : "transform1"
        },
        {
            "name" : "transform57"
        },
        {
            "name" : "transform2"
        },
        {
            "name" : "transform43"
        },
        {
            "name" : "transform46"
        },
        {
            "name" : "transform47"
        },
        {
            "name" : "transform48"
        },
        {
            "name" : "transform44"
        },
        {
            "name" : "transform45"
        },
        {
            "name" : "transform52"
        },
        {
            "name" : "transform53"
        },
        {
            "name" : "transform49"
        },
        {
            "name" : "transform50"
        },
        {
            "name" : "transform51"
        },
        {
            "name" : "transform54"
        },
        {
            "name" : "transform55"
        },
        {
            "name" : "transform56"
        },
        {
            "mesh" : 0,
            "name" : "\u043a\u043d\u0438\u0433\u0430",
            "rotation" : [
                0.4990728199481964,
                0.49631962180137634,
                -0.5009254813194275,
                0.5036534070968628
            ],
            "translation" : [
                0.016026228666305542,
                0.0320737361907959,
                -0.008384227752685547
            ]
        },
        {
            "mesh" : 1,
            "name" : "Text"
        }
    ],
    "materials" : [
        {
            "doubleSided" : true,
            "name" : "Material.005",
            "pbrMetallicRoughness" : {
                "baseColorTexture" : {
                    "index" : 0
                },
                "metallicFactor" : 0,
                "roughnessFactor" : 0.5
            }
        }
    ],
    "meshes" : [
        {
            "name" : "\u041f\u043b\u043e\u0441\u043a\u043e\u0441\u0442\u044c.014",
            "primitives" : [
                {
                    "attributes" : {
                        "POSITION" : 0,
                        "NORMAL" : 1,
                        "TEXCOORD_0" : 2
                    },
                    "indices" : 3,
                    "material" : 0
                }
            ]
        },
        {
            "name" : "Text",
            "primitives" : [
                {
                    "attributes" : {
                        "POSITION" : 4,
                        "NORMAL" : 5,
                        "TEXCOORD_0" : 6
                    },
                    "indices" : 7,
                    "material" : 0
                }
            ]
        }
    ],
    "textures" : [
        {
            "sampler" : 0,
            "source" : 0
        }
    ],
    "images" : [
        {
            "bufferView" : 4,
            "mimeType" : "image/png",
            "name" : "Material.005_Base_color"
        }
    ],
    "accessors" : [
        {
            "bufferView" : 0,
            "componentType" : 5126,
            "count" : 560,
            "max" : [
                0.462457537651062,
                0.09230790287256241,
                0.35031378269195557
            ],
            "min" : [
                -0.4626747965812683,
                -0.19886897504329681,
                -0.350311279296875
            ],
            "type" : "VEC3"
        },
        {
            "bufferView" : 1,
            "componentType" : 5126,
            "count" : 560,
            "type" : "VEC3"
        },
        {
            "bufferView" : 2,
            "componentType" : 5126,
            "count" : 560,
            "type" : "VEC2"
        },
        {
            "bufferView" : 3,
            "componentType" : 5123,
            "count" : 1068,
            "type" : "SCALAR"
        },
        {
            "bufferView" : 5,
            "componentType" : 5126,
            "count" : 14790,
            "max" : [
                0.11257199198007584,
                0.2938280701637268,
                0.4191106855869293
            ],
            "min" : [
                0.08184579759836197,
                -0.027450069785118103,
                -0.43652990460395813
            ],
            "type" : "VEC3"
        },
        {
            "bufferView" : 6,
            "componentType" : 5126,
            "count" : 14790,
            "type" : "VEC3"
        },
        {
            "bufferView" : 7,
            "componentType" : 5126,
            "count" : 14790,
            "type" : "VEC2"
        },
        {
            "bufferView" : 8,
            "componentType" : 5123,
            "count" : 17760,
            "type" : "SCALAR"
        }
    ],
    "bufferViews" : [
        {
            "buffer" : 0,
            "byteLength" : 6720,
            "byteOffset" : 0
        },
        {
            "buffer" : 0,
            "byteLength" : 6720,
            "byteOffset" : 6720
        },
        {
            "buffer" : 0,
            "byteLength" : 4480,
            "byteOffset" : 13440
        },
        {
            "buffer" : 0,
            "byteLength" : 2136,
            "byteOffset" : 17920
        },
        {
            "buffer" : 0,
            "byteLength" : 38727,
            "byteOffset" : 20056
        },
        {
            "buffer" : 0,
            "byteLength" : 177480,
            "byteOffset" : 58784
        },
        {
            "buffer" : 0,
            "byteLength" : 177480,
            "byteOffset" : 236264
        },
        {
            "buffer" : 0,
            "byteLength" : 118320,
            "byteOffset" : 413744
        },
        {
            "buffer" : 0,
            "byteLength" : 35520,
            "byteOffset" : 532064
        }
    ],
    "samplers" : [
        {
            "magFilter" : 9729,
            "minFilter" : 9987
        }
    ],
    "buffers" : [
        {
            "byteLength" : 567584,
            "uri" : "data:application/octet-stream;base64,"
        }
    ]
}
