{
    "asset" : {
        "generator" : "Khronos glTF Blender I/O v3.2.43",
        "version" : "2.0"
    },
    "scene" : 0,
    "scenes" : [
        {
            "name" : "Scene",
            "nodes" : [
                0,
                1,
                2,
                3
            ]
        }
    ],
    "nodes" : [
        {
            "mesh" : 0,
            "name" : "Bell_Top2"
        },
        {
            "mesh" : 1,
            "name" : "Bell_Top1"
        },
        {
            "mesh" : 2,
            "name" : "Bell_Resonator_Main"
        },
        {
            "mesh" : 3,
            "name" : "Bell_Clapper"
        }
    ],
    "animations" : [
        {
            "channels" : [
                {
                    "sampler" : 0,
                    "target" : {
                        "node" : 0,
                        "path" : "translation"
                    }
                },
                {
                    "sampler" : 1,
                    "target" : {
                        "node" : 0,
                        "path" : "rotation"
                    }
                },
                {
                    "sampler" : 2,
                    "target" : {
                        "node" : 0,
                        "path" : "scale"
                    }
                }
            ],
            "name" : "Bell_Top2",
            "samplers" : [
                {
                    "input" : 16,
                    "interpolation" : "LINEAR",
                    "output" : 17
                },
                {
                    "input" : 16,
                    "interpolation" : "LINEAR",
                    "output" : 18
                },
                {
                    "input" : 16,
                    "interpolation" : "LINEAR",
                    "output" : 19
                }
            ]
        },
        {
            "channels" : [
                {
                    "sampler" : 0,
                    "target" : {
                        "node" : 1,
                        "path" : "translation"
                    }
                },
                {
                    "sampler" : 1,
                    "target" : {
                        "node" : 1,
                        "path" : "rotation"
                    }
                },
                {
                    "sampler" : 2,
                    "target" : {
                        "node" : 1,
                        "path" : "scale"
                    }
                }
            ],
            "name" : "Bell_Top1",
            "samplers" : [
                {
                    "input" : 16,
                    "interpolation" : "LINEAR",
                    "output" : 20
                },
                {
                    "input" : 16,
                    "interpolation" : "LINEAR",
                    "output" : 21
                },
                {
                    "input" : 16,
                    "interpolation" : "LINEAR",
                    "output" : 22
                }
            ]
        },
        {
            "channels" : [
                {
                    "sampler" : 0,
                    "target" : {
                        "node" : 2,
                        "path" : "translation"
                    }
                },
                {
                    "sampler" : 1,
                    "target" : {
                        "node" : 2,
                        "path" : "rotation"
                    }
                },
                {
                    "sampler" : 2,
                    "target" : {
                        "node" : 2,
                        "path" : "scale"
                    }
                }
            ],
            "name" : "Bell_Resonator_Main",
            "samplers" : [
                {
                    "input" : 16,
                    "interpolation" : "LINEAR",
                    "output" : 23
                },
                {
                    "input" : 16,
                    "interpolation" : "LINEAR",
                    "output" : 24
                },
                {
                    "input" : 16,
                    "interpolation" : "LINEAR",
                    "output" : 25
                }
            ]
        },
        {
            "channels" : [
                {
                    "sampler" : 0,
                    "target" : {
                        "node" : 3,
                        "path" : "translation"
                    }
                },
                {
                    "sampler" : 1,
                    "target" : {
                        "node" : 3,
                        "path" : "rotation"
                    }
                },
                {
                    "sampler" : 2,
                    "target" : {
                        "node" : 3,
                        "path" : "scale"
                    }
                }
            ],
            "name" : "Bell_Clapper",
            "samplers" : [
                {
                    "input" : 16,
                    "interpolation" : "LINEAR",
                    "output" : 26
                },
                {
                    "input" : 16,
                    "interpolation" : "LINEAR",
                    "output" : 27
                },
                {
                    "input" : 16,
                    "interpolation" : "LINEAR",
                    "output" : 28
                }
            ]
        }
    ],
    "materials" : [
        {
            "doubleSided" : true,
            "name" : "Bell_Tex_Lam",
            "normalTexture" : {
                "index" : 0
            },
            "pbrMetallicRoughness" : {
                "baseColorTexture" : {
                    "index" : 1
                },
                "metallicRoughnessTexture" : {
                    "index" : 2
                },
                "roughnessFactor" : 0.5527864098548889
            }
        }
    ],
    "meshes" : [
        {
            "name" : "Mesh.064",
            "primitives" : [
                {
                    "attributes" : {
                        "POSITION" : 0,
                        "NORMAL" : 1,
                        "TEXCOORD_0" : 2
                    },
                    "indices" : 3,
                    "material" : 0
                }
            ]
        },
        {
            "name" : "Mesh.065",
            "primitives" : [
                {
                    "attributes" : {
                        "POSITION" : 4,
                        "NORMAL" : 5,
                        "TEXCOORD_0" : 6
                    },
                    "indices" : 7,
                    "material" : 0
                }
            ]
        },
        {
            "name" : "Mesh.066",
            "primitives" : [
                {
                    "attributes" : {
                        "POSITION" : 8,
                        "NORMAL" : 9,
                        "TEXCOORD_0" : 10
                    },
                    "indices" : 11,
                    "material" : 0
                }
            ]
        },
        {
            "name" : "Mesh.067",
            "primitives" : [
                {
                    "attributes" : {
                        "POSITION" : 12,
                        "NORMAL" : 13,
                        "TEXCOORD_0" : 14
                    },
                    "indices" : 15,
                    "material" : 0
                }
            ]
        }
    ],
    "textures" : [
        {
            "sampler" : 0,
            "source" : 0
        },
        {
            "sampler" : 0,
            "source" : 1
        },
        {
            "sampler" : 0,
            "source" : 2
        }
    ],
    "images" : [
        {
            "bufferView" : 4,
            "mimeType" : "image/png",
            "name" : "Image_0"
        },
        {
            "bufferView" : 5,
            "mimeType" : "image/png",
            "name" : "Image_1"
        },
        {
            "bufferView" : 6,
            "mimeType" : "image/png",
            "name" : "Image_2"
        }
    ],
    "accessors" : [
        {
            "bufferView" : 0,
            "componentType" : 5126,
            "count" : 142,
            "max" : [
                0.046519529074430466,
                0.5201942324638367,
                -0.4209558665752411
            ],
            "min" : [
                0.002673281356692314,
                0.39840853214263916,
                -0.6296581029891968
            ],
            "type" : "VEC3"
        },
        {
            "bufferView" : 1,
            "componentType" : 5126,
            "count" : 142,
            "type" : "VEC3"
        },
        {
            "bufferView" : 2,
            "componentType" : 5126,
            "count" : 142,
            "type" : "VEC2"
        },
        {
            "bufferView" : 3,
            "componentType" : 5123,
            "count" : 156,
            "type" : "SCALAR"
        },
        {
            "bufferView" : 7,
            "componentType" : 5126,
            "count" : 260,
            "max" : [
                0.17480485141277313,
                0.48122450709342957,
                -0.3310084044933319
            ],
            "min" : [
                -0.12561213970184326,
                0.43737828731536865,
                -0.5929378271102905
            ],
            "type" : "VEC3"
        },
        {
            "bufferView" : 8,
            "componentType" : 5126,
            "count" : 260,
            "type" : "VEC3"
        },
        {
            "bufferView" : 9,
            "componentType" : 5126,
            "count" : 260,
            "type" : "VEC2"
        },
        {
            "bufferView" : 10,
            "componentType" : 5123,
            "count" : 288,
            "type" : "SCALAR"
        },
        {
            "bufferView" : 11,
            "componentType" : 5126,
            "count" : 1232,
            "max" : [
                0.5079346299171448,
                0.9304801821708679,
                0.4798806309700012
            ],
            "min" : [
                -0.45844268798828125,
                -0.014625400304794312,
                -0.4418105185031891
            ],
            "type" : "VEC3"
        },
        {
            "bufferView" : 12,
            "componentType" : 5126,
            "count" : 1232,
            "type" : "VEC3"
        },
        {
            "bufferView" : 13,
            "componentType" : 5126,
            "count" : 1232,
            "type" : "VEC2"
        },
        {
            "bufferView" : 14,
            "componentType" : 5123,
            "count" : 1620,
            "type" : "SCALAR"
        },
        {
            "bufferView" : 15,
            "componentType" : 5126,
            "count" : 152,
            "max" : [
                0.07743905484676361,
                0.5050645470619202,
                0.5226322412490845
            ],
            "min" : [
                -0.028246261179447174,
                0.4135383069515228,
                -0.35739514231681824
            ],
            "type" : "VEC3"
        },
        {
            "bufferView" : 16,
            "componentType" : 5126,
            "count" : 152,
            "type" : "VEC3"
        },
        {
            "bufferView" : 17,
            "componentType" : 5126,
            "count" : 152,
            "type" : "VEC2"
        },
        {
            "bufferView" : 18,
            "componentType" : 5123,
            "count" : 216,
            "type" : "SCALAR"
        },
        {
            "bufferView" : 19,
            "componentType" : 5126,
            "count" : 402,
            "max" : [
                16.708333333333332
            ],
            "min" : [
                0
            ],
            "type" : "SCALAR"
        },
        {
            "bufferView" : 20,
            "componentType" : 5126,
            "count" : 402,
            "type" : "VEC3"
        },
        {
            "bufferView" : 21,
            "componentType" : 5126,
            "count" : 402,
            "type" : "VEC4"
        },
        {
            "bufferView" : 22,
            "componentType" : 5126,
            "count" : 402,
            "type" : "VEC3"
        },
        {
            "bufferView" : 23,
            "componentType" : 5126,
            "count" : 402,
            "type" : "VEC3"
        },
        {
            "bufferView" : 24,
            "componentType" : 5126,
            "count" : 402,
            "type" : "VEC4"
        },
        {
            "bufferView" : 25,
            "componentType" : 5126,
            "count" : 402,
            "type" : "VEC3"
        },
        {
            "bufferView" : 26,
            "componentType" : 5126,
            "count" : 402,
            "type" : "VEC3"
        },
        {
            "bufferView" : 27,
            "componentType" : 5126,
            "count" : 402,
            "type" : "VEC4"
        },
        {
            "bufferView" : 28,
            "componentType" : 5126,
            "count" : 402,
            "type" : "VEC3"
        },
        {
            "bufferView" : 29,
            "componentType" : 5126,
            "count" : 402,
            "type" : "VEC3"
        },
        {
            "bufferView" : 30,
            "componentType" : 5126,
            "count" : 402,
            "type" : "VEC4"
        },
        {
            "bufferView" : 31,
            "componentType" : 5126,
            "count" : 402,
            "type" : "VEC3"
        }
    ],
    "bufferViews" : [
        {
            "buffer" : 0,
            "byteLength" : 1704,
            "byteOffset" : 0
        },
        {
            "buffer" : 0,
            "byteLength" : 1704,
            "byteOffset" : 1704
        },
        {
            "buffer" : 0,
            "byteLength" : 1136,
            "byteOffset" : 3408
        },
        {
            "buffer" : 0,
            "byteLength" : 312,
            "byteOffset" : 4544
        },
        {
            "buffer" : 0,
            "byteLength" : 599324,
            "byteOffset" : 4856
        },
        {
            "buffer" : 0,
            "byteLength" : 1083626,
            "byteOffset" : 604180
        },
        {
            "buffer" : 0,
            "byteLength" : 15799,
            "byteOffset" : 1687808
        },
        {
            "buffer" : 0,
            "byteLength" : 3120,
            "byteOffset" : 1703608
        },
        {
            "buffer" : 0,
            "byteLength" : 3120,
            "byteOffset" : 1706728
        },
        {
            "buffer" : 0,
            "byteLength" : 2080,
            "byteOffset" : 1709848
        },
        {
            "buffer" : 0,
            "byteLength" : 576,
            "byteOffset" : 1711928
        },
        {
            "buffer" : 0,
            "byteLength" : 14784,
            "byteOffset" : 1712504
        },
        {
            "buffer" : 0,
            "byteLength" : 14784,
            "byteOffset" : 1727288
        },
        {
            "buffer" : 0,
            "byteLength" : 9856,
            "byteOffset" : 1742072
        },
        {
            "buffer" : 0,
            "byteLength" : 3240,
            "byteOffset" : 1751928
        },
        {
            "buffer" : 0,
            "byteLength" : 1824,
            "byteOffset" : 1755168
        },
        {
            "buffer" : 0,
            "byteLength" : 1824,
            "byteOffset" : 1756992
        },
        {
            "buffer" : 0,
            "byteLength" : 1216,
            "byteOffset" : 1758816
        },
        {
            "buffer" : 0,
            "byteLength" : 432,
            "byteOffset" : 1760032
        },
        {
            "buffer" : 0,
            "byteLength" : 1608,
            "byteOffset" : 1760464
        },
        {
            "buffer" : 0,
            "byteLength" : 4824,
            "byteOffset" : 1762072
        },
        {
            "buffer" : 0,
            "byteLength" : 6432,
            "byteOffset" : 1766896
        },
        {
            "buffer" : 0,
            "byteLength" : 4824,
            "byteOffset" : 1773328
        },
        {
            "buffer" : 0,
            "byteLength" : 4824,
            "byteOffset" : 1778152
        },
        {
            "buffer" : 0,
            "byteLength" : 6432,
            "byteOffset" : 1782976
        },
        {
            "buffer" : 0,
            "byteLength" : 4824,
            "byteOffset" : 1789408
        },
        {
            "buffer" : 0,
            "byteLength" : 4824,
            "byteOffset" : 1794232
        },
        {
            "buffer" : 0,
            "byteLength" : 6432,
            "byteOffset" : 1799056
        },
        {
            "buffer" : 0,
            "byteLength" : 4824,
            "byteOffset" : 1805488
        },
        {
            "buffer" : 0,
            "byteLength" : 4824,
            "byteOffset" : 1810312
        },
        {
            "buffer" : 0,
            "byteLength" : 6432,
            "byteOffset" : 1815136
        },
        {
            "buffer" : 0,
            "byteLength" : 4824,
            "byteOffset" : 1821568
        }
    ],
    "samplers" : [
        {
            "magFilter" : 9729,
            "minFilter" : 9987
        }
    ],
    "buffers" : [
        {
            "byteLength" : 1826392,
            "uri" : "data:application/octet-stream;base64,"
        }
    ]
}
