{
    "asset" : {
        "generator" : "Khronos glTF Blender I/O v3.2.43",
        "version" : "2.0"
    },
    "scene" : 0,
    "scenes" : [
        {
            "name" : "Scene",
            "nodes" : [
                0,
                1,
                2,
                3
            ]
        }
    ],
    "nodes" : [
        {
            "mesh" : 0,
            "name" : "Bell_Top2"
        },
        {
            "mesh" : 1,
            "name" : "Bell_Top1"
        },
        {
            "mesh" : 2,
            "name" : "Bell_Resonator_Main"
        },
        {
            "mesh" : 3,
            "name" : "Bell_Clapper"
        }
    ],
    "animations" : [
        {
            "channels" : [
                {
                    "sampler" : 0,
                    "target" : {
                        "node" : 0,
                        "path" : "translation"
                    }
                },
                {
                    "sampler" : 1,
                    "target" : {
                        "node" : 0,
                        "path" : "rotation"
                    }
                },
                {
                    "sampler" : 2,
                    "target" : {
                        "node" : 0,
                        "path" : "scale"
                    }
                }
            ],
            "name" : "Bell_Top2",
            "samplers" : [
                {
                    "input" : 16,
                    "interpolation" : "LINEAR",
                    "output" : 17
                },
                {
                    "input" : 16,
                    "interpolation" : "LINEAR",
                    "output" : 18
                },
                {
                    "input" : 16,
                    "interpolation" : "LINEAR",
                    "output" : 19
                }
            ]
        },
        {
            "channels" : [
                {
                    "sampler" : 0,
                    "target" : {
                        "node" : 1,
                        "path" : "translation"
                    }
                },
                {
                    "sampler" : 1,
                    "target" : {
                        "node" : 1,
                        "path" : "rotation"
                    }
                },
                {
                    "sampler" : 2,
                    "target" : {
                        "node" : 1,
                        "path" : "scale"
                    }
                }
            ],
            "name" : "Bell_Top1",
            "samplers" : [
                {
                    "input" : 16,
                    "interpolation" : "LINEAR",
                    "output" : 20
                },
                {
                    "input" : 16,
                    "interpolation" : "LINEAR",
                    "output" : 21
                },
                {
                    "input" : 16,
                    "interpolation" : "LINEAR",
                    "output" : 22
                }
            ]
        },
        {
            "channels" : [
                {
                    "sampler" : 0,
                    "target" : {
                        "node" : 2,
                        "path" : "translation"
                    }
                },
                {
                    "sampler" : 1,
                    "target" : {
                        "node" : 2,
                        "path" : "rotation"
                    }
                },
                {
                    "sampler" : 2,
                    "target" : {
                        "node" : 2,
                        "path" : "scale"
                    }
                }
            ],
            "name" : "Bell_Resonator_Main",
            "samplers" : [
                {
                    "input" : 16,
                    "interpolation" : "LINEAR",
                    "output" : 23
                },
                {
                    "input" : 16,
                    "interpolation" : "LINEAR",
                    "output" : 24
                },
                {
                    "input" : 16,
                    "interpolation" : "LINEAR",
                    "output" : 25
                }
            ]
        },
        {
            "channels" : [
                {
                    "sampler" : 0,
                    "target" : {
                        "node" : 3,
                        "path" : "translation"
                    }
                },
                {
                    "sampler" : 1,
                    "target" : {
                        "node" : 3,
                        "path" : "rotation"
                    }
                },
                {
                    "sampler" : 2,
                    "target" : {
                        "node" : 3,
                        "path" : "scale"
                    }
                }
            ],
            "name" : "Bell_Clapper",
            "samplers" : [
                {
                    "input" : 16,
                    "interpolation" : "LINEAR",
                    "output" : 26
                },
                {
                    "input" : 16,
                    "interpolation" : "LINEAR",
                    "output" : 27
                },
                {
                    "input" : 16,
                    "interpolation" : "LINEAR",
                    "output" : 28
                }
            ]
        }
    ],
    "materials" : [
        {
            "doubleSided" : true,
            "name" : "Bell_Tex_Lam",
            "normalTexture" : {
                "index" : 0
            },
            "pbrMetallicRoughness" : {
                "baseColorTexture" : {
                    "index" : 1
                },
                "metallicRoughnessTexture" : {
                    "index" : 2
                },
                "roughnessFactor" : 0.5527864098548889
            }
        }
    ],
    "meshes" : [
        {
            "name" : "Mesh.064",
            "primitives" : [
                {
                    "attributes" : {
                        "POSITION" : 0,
                        "NORMAL" : 1,
                        "TEXCOORD_0" : 2
                    },
                    "indices" : 3,
                    "material" : 0
                }
            ]
        },
        {
            "name" : "Mesh.065",
            "primitives" : [
                {
                    "attributes" : {
                        "POSITION" : 4,
                        "NORMAL" : 5,
                        "TEXCOORD_0" : 6
                    },
                    "indices" : 7,
                    "material" : 0
                }
            ]
        },
        {
            "name" : "Mesh.066",
            "primitives" : [
                {
                    "attributes" : {
                        "POSITION" : 8,
                        "NORMAL" : 9,
                        "TEXCOORD_0" : 10
                    },
                    "indices" : 11,
                    "material" : 0
                }
            ]
        },
        {
            "name" : "Mesh.067",
            "primitives" : [
                {
                    "attributes" : {
                        "POSITION" : 12,
                        "NORMAL" : 13,
                        "TEXCOORD_0" : 14
                    },
                    "indices" : 15,
                    "material" : 0
                }
            ]
        }
    ],
    "textures" : [
        {
            "sampler" : 0,
            "source" : 0
        },
        {
            "sampler" : 0,
            "source" : 1
        },
        {
            "sampler" : 0,
            "source" : 2
        }
    ],
    "images" : [
        {
            "bufferView" : 4,
            "mimeType" : "image/png",
            "name" : "Bell_Bake_fromMaya_01"
        },
        {
            "bufferView" : 5,
            "mimeType" : "image/png",
            "name" : "Bell_Tex_Lam_Base_color"
        },
        {
            "bufferView" : 6,
            "mimeType" : "image/png",
            "name" : "Bell_Tex_Lam_Metallic"
        }
    ],
    "accessors" : [
        {
            "bufferView" : 0,
            "componentType" : 5126,
            "count" : 84,
            "max" : [
                0.04651952534914017,
                1.0999033451080322,
                0.049948953092098236
            ],
            "min" : [
                0.0026732776314020157,
                0.8912011384963989,
                -0.07183675467967987
            ],
            "type" : "VEC3"
        },
        {
            "bufferView" : 1,
            "componentType" : 5126,
            "count" : 84,
            "type" : "VEC3"
        },
        {
            "bufferView" : 2,
            "componentType" : 5126,
            "count" : 84,
            "type" : "VEC2"
        },
        {
            "bufferView" : 3,
            "componentType" : 5123,
            "count" : 156,
            "type" : "SCALAR"
        },
        {
            "bufferView" : 7,
            "componentType" : 5126,
            "count" : 164,
            "max" : [
                0.17480485141277313,
                1.063183069229126,
                0.010979230515658855
            ],
            "min" : [
                -0.12561213970184326,
                0.8012536764144897,
                -0.032867033034563065
            ],
            "type" : "VEC3"
        },
        {
            "bufferView" : 8,
            "componentType" : 5126,
            "count" : 164,
            "type" : "VEC3"
        },
        {
            "bufferView" : 9,
            "componentType" : 5126,
            "count" : 164,
            "type" : "VEC2"
        },
        {
            "bufferView" : 10,
            "componentType" : 5123,
            "count" : 288,
            "type" : "SCALAR"
        },
        {
            "bufferView" : 11,
            "componentType" : 5126,
            "count" : 1072,
            "max" : [
                0.5079346299171448,
                0.9120557904243469,
                0.46023470163345337
            ],
            "min" : [
                -0.45844268798828125,
                -0.009635213762521744,
                -0.4848707616329193
            ],
            "type" : "VEC3"
        },
        {
            "bufferView" : 12,
            "componentType" : 5126,
            "count" : 1072,
            "type" : "VEC3"
        },
        {
            "bufferView" : 13,
            "componentType" : 5126,
            "count" : 1072,
            "type" : "VEC2"
        },
        {
            "bufferView" : 14,
            "componentType" : 5123,
            "count" : 1620,
            "type" : "SCALAR"
        },
        {
            "bufferView" : 15,
            "componentType" : 5126,
            "count" : 122,
            "max" : [
                0.07743905484676361,
                0.8276404142379761,
                0.03481912985444069
            ],
            "min" : [
                -0.028246264904737473,
                -0.0523868203163147,
                -0.056707095354795456
            ],
            "type" : "VEC3"
        },
        {
            "bufferView" : 16,
            "componentType" : 5126,
            "count" : 122,
            "type" : "VEC3"
        },
        {
            "bufferView" : 17,
            "componentType" : 5126,
            "count" : 122,
            "type" : "VEC2"
        },
        {
            "bufferView" : 18,
            "componentType" : 5123,
            "count" : 216,
            "type" : "SCALAR"
        },
        {
            "bufferView" : 19,
            "componentType" : 5126,
            "count" : 402,
            "max" : [
                16.708333333333332
            ],
            "min" : [
                0
            ],
            "type" : "SCALAR"
        },
        {
            "bufferView" : 20,
            "componentType" : 5126,
            "count" : 402,
            "type" : "VEC3"
        },
        {
            "bufferView" : 21,
            "componentType" : 5126,
            "count" : 402,
            "type" : "VEC4"
        },
        {
            "bufferView" : 22,
            "componentType" : 5126,
            "count" : 402,
            "type" : "VEC3"
        },
        {
            "bufferView" : 23,
            "componentType" : 5126,
            "count" : 402,
            "type" : "VEC3"
        },
        {
            "bufferView" : 24,
            "componentType" : 5126,
            "count" : 402,
            "type" : "VEC4"
        },
        {
            "bufferView" : 25,
            "componentType" : 5126,
            "count" : 402,
            "type" : "VEC3"
        },
        {
            "bufferView" : 26,
            "componentType" : 5126,
            "count" : 402,
            "type" : "VEC3"
        },
        {
            "bufferView" : 27,
            "componentType" : 5126,
            "count" : 402,
            "type" : "VEC4"
        },
        {
            "bufferView" : 28,
            "componentType" : 5126,
            "count" : 402,
            "type" : "VEC3"
        },
        {
            "bufferView" : 29,
            "componentType" : 5126,
            "count" : 402,
            "type" : "VEC3"
        },
        {
            "bufferView" : 30,
            "componentType" : 5126,
            "count" : 402,
            "type" : "VEC4"
        },
        {
            "bufferView" : 31,
            "componentType" : 5126,
            "count" : 402,
            "type" : "VEC3"
        }
    ],
    "bufferViews" : [
        {
            "buffer" : 0,
            "byteLength" : 1008,
            "byteOffset" : 0
        },
        {
            "buffer" : 0,
            "byteLength" : 1008,
            "byteOffset" : 1008
        },
        {
            "buffer" : 0,
            "byteLength" : 672,
            "byteOffset" : 2016
        },
        {
            "buffer" : 0,
            "byteLength" : 312,
            "byteOffset" : 2688
        },
        {
            "buffer" : 0,
            "byteLength" : 599324,
            "byteOffset" : 3000
        },
        {
            "buffer" : 0,
            "byteLength" : 1083626,
            "byteOffset" : 602324
        },
        {
            "buffer" : 0,
            "byteLength" : 15799,
            "byteOffset" : 1685952
        },
        {
            "buffer" : 0,
            "byteLength" : 1968,
            "byteOffset" : 1701752
        },
        {
            "buffer" : 0,
            "byteLength" : 1968,
            "byteOffset" : 1703720
        },
        {
            "buffer" : 0,
            "byteLength" : 1312,
            "byteOffset" : 1705688
        },
        {
            "buffer" : 0,
            "byteLength" : 576,
            "byteOffset" : 1707000
        },
        {
            "buffer" : 0,
            "byteLength" : 12864,
            "byteOffset" : 1707576
        },
        {
            "buffer" : 0,
            "byteLength" : 12864,
            "byteOffset" : 1720440
        },
        {
            "buffer" : 0,
            "byteLength" : 8576,
            "byteOffset" : 1733304
        },
        {
            "buffer" : 0,
            "byteLength" : 3240,
            "byteOffset" : 1741880
        },
        {
            "buffer" : 0,
            "byteLength" : 1464,
            "byteOffset" : 1745120
        },
        {
            "buffer" : 0,
            "byteLength" : 1464,
            "byteOffset" : 1746584
        },
        {
            "buffer" : 0,
            "byteLength" : 976,
            "byteOffset" : 1748048
        },
        {
            "buffer" : 0,
            "byteLength" : 432,
            "byteOffset" : 1749024
        },
        {
            "buffer" : 0,
            "byteLength" : 1608,
            "byteOffset" : 1749456
        },
        {
            "buffer" : 0,
            "byteLength" : 4824,
            "byteOffset" : 1751064
        },
        {
            "buffer" : 0,
            "byteLength" : 6432,
            "byteOffset" : 1755888
        },
        {
            "buffer" : 0,
            "byteLength" : 4824,
            "byteOffset" : 1762320
        },
        {
            "buffer" : 0,
            "byteLength" : 4824,
            "byteOffset" : 1767144
        },
        {
            "buffer" : 0,
            "byteLength" : 6432,
            "byteOffset" : 1771968
        },
        {
            "buffer" : 0,
            "byteLength" : 4824,
            "byteOffset" : 1778400
        },
        {
            "buffer" : 0,
            "byteLength" : 4824,
            "byteOffset" : 1783224
        },
        {
            "buffer" : 0,
            "byteLength" : 6432,
            "byteOffset" : 1788048
        },
        {
            "buffer" : 0,
            "byteLength" : 4824,
            "byteOffset" : 1794480
        },
        {
            "buffer" : 0,
            "byteLength" : 4824,
            "byteOffset" : 1799304
        },
        {
            "buffer" : 0,
            "byteLength" : 6432,
            "byteOffset" : 1804128
        },
        {
            "buffer" : 0,
            "byteLength" : 4824,
            "byteOffset" : 1810560
        }
    ],
    "samplers" : [
        {
            "magFilter" : 9729,
            "minFilter" : 9987
        }
    ],
    "buffers" : [
        {
            "byteLength" : 1815384,
            "uri" : "data:application/octet-stream;base64,"
        }
    ]
}
