{
    "asset" : {
        "generator" : "Khronos glTF Blender I/O v3.2.43",
        "version" : "2.0"
    },
    "scene" : 0,
    "scenes" : [
        {
            "name" : "Scene",
            "nodes" : [
                0
            ]
        }
    ],
    "nodes" : [
        {
            "mesh" : 0,
            "name" : "Orthodox Cross",
            "scale" : [
                0.006318210624158382,
                0.006318210624158382,
                0.006318210624158382
            ]
        }
    ],
    "animations" : [
        {
            "channels" : [
                {
                    "sampler" : 0,
                    "target" : {
                        "node" : 0,
                        "path" : "translation"
                    }
                },
                {
                    "sampler" : 1,
                    "target" : {
                        "node" : 0,
                        "path" : "rotation"
                    }
                },
                {
                    "sampler" : 2,
                    "target" : {
                        "node" : 0,
                        "path" : "scale"
                    }
                }
            ],
            "name" : "Orthodox Cross",
            "samplers" : [
                {
                    "input" : 6,
                    "interpolation" : "LINEAR",
                    "output" : 7
                },
                {
                    "input" : 6,
                    "interpolation" : "LINEAR",
                    "output" : 8
                },
                {
                    "input" : 6,
                    "interpolation" : "LINEAR",
                    "output" : 9
                }
            ]
        }
    ],
    "materials" : [
        {
            "doubleSided" : true,
            "name" : "wood",
            "pbrMetallicRoughness" : {
                "baseColorFactor" : [
                    0.07323601096868515,
                    0.023322606459259987,
                    0.004678900819271803,
                    1
                ],
                "metallicFactor" : 0,
                "roughnessFactor" : 0.5
            }
        },
        {
            "doubleSided" : true,
            "name" : "green",
            "pbrMetallicRoughness" : {
                "baseColorFactor" : [
                    0.005914533976465464,
                    0.06371922045946121,
                    0,
                    1
                ],
                "metallicFactor" : 0,
                "roughnessFactor" : 0.5
            }
        }
    ],
    "meshes" : [
        {
            "name" : "Orthodox Cross",
            "primitives" : [
                {
                    "attributes" : {
                        "POSITION" : 0,
                        "NORMAL" : 1
                    },
                    "indices" : 2,
                    "material" : 0
                },
                {
                    "attributes" : {
                        "POSITION" : 3,
                        "NORMAL" : 4
                    },
                    "indices" : 5,
                    "material" : 1
                }
            ]
        }
    ],
    "accessors" : [
        {
            "bufferView" : 0,
            "componentType" : 5126,
            "count" : 135,
            "max" : [
                44,
                186,
                18
            ],
            "min" : [
                -56,
                39.24217224121094,
                5
            ],
            "type" : "VEC3"
        },
        {
            "bufferView" : 1,
            "componentType" : 5126,
            "count" : 135,
            "type" : "VEC3"
        },
        {
            "bufferView" : 2,
            "componentType" : 5123,
            "count" : 279,
            "type" : "SCALAR"
        },
        {
            "bufferView" : 3,
            "componentType" : 5126,
            "count" : 298,
            "max" : [
                40.15399932861328,
                39.531219482421875,
                62
            ],
            "min" : [
                -52.154998779296875,
                -1.3451109670548078e-10,
                -38
            ],
            "type" : "VEC3"
        },
        {
            "bufferView" : 4,
            "componentType" : 5126,
            "count" : 298,
            "type" : "VEC3"
        },
        {
            "bufferView" : 5,
            "componentType" : 5123,
            "count" : 1509,
            "type" : "SCALAR"
        },
        {
            "bufferView" : 6,
            "componentType" : 5126,
            "count" : 402,
            "max" : [
                16.708333333333332
            ],
            "min" : [
                0
            ],
            "type" : "SCALAR"
        },
        {
            "bufferView" : 7,
            "componentType" : 5126,
            "count" : 402,
            "type" : "VEC3"
        },
        {
            "bufferView" : 8,
            "componentType" : 5126,
            "count" : 402,
            "type" : "VEC4"
        },
        {
            "bufferView" : 9,
            "componentType" : 5126,
            "count" : 402,
            "type" : "VEC3"
        }
    ],
    "bufferViews" : [
        {
            "buffer" : 0,
            "byteLength" : 1620,
            "byteOffset" : 0
        },
        {
            "buffer" : 0,
            "byteLength" : 1620,
            "byteOffset" : 1620
        },
        {
            "buffer" : 0,
            "byteLength" : 558,
            "byteOffset" : 3240
        },
        {
            "buffer" : 0,
            "byteLength" : 3576,
            "byteOffset" : 3800
        },
        {
            "buffer" : 0,
            "byteLength" : 3576,
            "byteOffset" : 7376
        },
        {
            "buffer" : 0,
            "byteLength" : 3018,
            "byteOffset" : 10952
        },
        {
            "buffer" : 0,
            "byteLength" : 1608,
            "byteOffset" : 13972
        },
        {
            "buffer" : 0,
            "byteLength" : 4824,
            "byteOffset" : 15580
        },
        {
            "buffer" : 0,
            "byteLength" : 6432,
            "byteOffset" : 20404
        },
        {
            "buffer" : 0,
            "byteLength" : 4824,
            "byteOffset" : 26836
        }
    ],
    "buffers" : [
        {
            "byteLength" : 31660,
            "uri" : "data:application/octet-stream;base64,"
        }
    ]
}
