{
    "asset" : {
        "generator" : "Khronos glTF Blender I/O v3.2.43",
        "version" : "2.0"
    },
    "scene" : 0,
    "scenes" : [
        {
            "name" : "Scene",
            "nodes" : [
                0
            ]
        }
    ],
    "nodes" : [
        {
            "mesh" : 0,
            "name" : "1_low",
            "rotation" : [
                0.7071068286895752,
                0,
                0,
                0.7071067094802856
            ],
            "scale" : [
                0.008220757357776165,
                0.008220757357776165,
                0.008220757357776165
            ],
            "translation" : [
                0.006176857743412256,
                0.02755892649292946,
                0.02225913293659687
            ]
        }
    ],
    "materials" : [
        {
            "doubleSided" : true,
            "name" : "Material.001",
            "normalTexture" : {
                "index" : 0
            },
            "pbrMetallicRoughness" : {
                "baseColorTexture" : {
                    "index" : 1
                },
                "metallicFactor" : 0,
                "roughnessFactor" : 0.5
            }
        }
    ],
    "meshes" : [
        {
            "name" : "1",
            "primitives" : [
                {
                    "attributes" : {
                        "POSITION" : 0,
                        "NORMAL" : 1,
                        "TEXCOORD_0" : 2
                    },
                    "indices" : 3,
                    "material" : 0
                }
            ]
        }
    ],
    "textures" : [
        {
            "sampler" : 0,
            "source" : 0
        },
        {
            "sampler" : 0,
            "source" : 1
        }
    ],
    "images" : [
        {
            "bufferView" : 4,
            "mimeType" : "image/png",
            "name" : "1_normal"
        },
        {
            "bufferView" : 5,
            "mimeType" : "image/png",
            "name" : "1_ao"
        }
    ],
    "accessors" : [
        {
            "bufferView" : 0,
            "componentType" : 5126,
            "count" : 28962,
            "max" : [
                30.855880737304688,
                18.019508361816406,
                52.94253158569336
            ],
            "min" : [
                -35.030128479003906,
                -24.730112075805664,
                -47.36274337768555
            ],
            "type" : "VEC3"
        },
        {
            "bufferView" : 1,
            "componentType" : 5126,
            "count" : 28962,
            "type" : "VEC3"
        },
        {
            "bufferView" : 2,
            "componentType" : 5126,
            "count" : 28962,
            "type" : "VEC2"
        },
        {
            "bufferView" : 3,
            "componentType" : 5123,
            "count" : 136704,
            "type" : "SCALAR"
        }
    ],
    "bufferViews" : [
        {
            "buffer" : 0,
            "byteLength" : 347544,
            "byteOffset" : 0
        },
        {
            "buffer" : 0,
            "byteLength" : 347544,
            "byteOffset" : 347544
        },
        {
            "buffer" : 0,
            "byteLength" : 231696,
            "byteOffset" : 695088
        },
        {
            "buffer" : 0,
            "byteLength" : 273408,
            "byteOffset" : 926784
        },
        {
            "buffer" : 0,
            "byteLength" : 1052432,
            "byteOffset" : 1200192
        },
        {
            "buffer" : 0,
            "byteLength" : 740627,
            "byteOffset" : 2252624
        }
    ],
    "samplers" : [
        {
            "magFilter" : 9729,
            "minFilter" : 9987
        }
    ],
    "buffers" : [
        {
            "byteLength" : 2993252,
            "uri" : "data:application/octet-stream;base64,"
        }
    ]
}
