{
    "asset" : {
        "generator" : "Khronos glTF Blender I/O v3.2.43",
        "version" : "2.0"
    },
    "scene" : 0,
    "scenes" : [
        {
            "name" : "Scene",
            "nodes" : [
                0
            ]
        }
    ],
    "nodes" : [
        {
            "mesh" : 0,
            "name" : "Plane.006",
            "translation" : [
                -0.045368753373622894,
                -0.00044493499444797635,
                -0.1437661051750183
            ]
        }
    ],
    "animations" : [
        {
            "channels" : [
                {
                    "sampler" : 0,
                    "target" : {
                        "node" : 0,
                        "path" : "rotation"
                    }
                }
            ],
            "name" : "Plane.006Action",
            "samplers" : [
                {
                    "input" : 12,
                    "interpolation" : "LINEAR",
                    "output" : 13
                }
            ]
        }
    ],
    "materials" : [
        {
            "doubleSided" : true,
            "name" : "Material.003",
            "pbrMetallicRoughness" : {
                "baseColorTexture" : {
                    "index" : 0
                },
                "metallicFactor" : 0,
                "roughnessFactor" : 0.5
            }
        },
        {
            "doubleSided" : true,
            "name" : "Material.002",
            "pbrMetallicRoughness" : {
                "baseColorFactor" : [
                    0.800000011920929,
                    0.800000011920929,
                    0.800000011920929,
                    1
                ],
                "metallicFactor" : 0,
                "roughnessFactor" : 0.5
            }
        },
        {
            "doubleSided" : true,
            "name" : "red",
            "pbrMetallicRoughness" : {
                "baseColorFactor" : [
                    0.9848872423171997,
                    0.034045178443193436,
                    0.012386533431708813,
                    1
                ],
                "metallicFactor" : 0.5196850299835205,
                "roughnessFactor" : 0.5
            }
        }
    ],
    "meshes" : [
        {
            "name" : "Plane.011",
            "primitives" : [
                {
                    "attributes" : {
                        "POSITION" : 0,
                        "NORMAL" : 1,
                        "TEXCOORD_0" : 2
                    },
                    "indices" : 3,
                    "material" : 0
                },
                {
                    "attributes" : {
                        "POSITION" : 4,
                        "NORMAL" : 5,
                        "TEXCOORD_0" : 6
                    },
                    "indices" : 7,
                    "material" : 1
                },
                {
                    "attributes" : {
                        "POSITION" : 8,
                        "NORMAL" : 9,
                        "TEXCOORD_0" : 10
                    },
                    "indices" : 11,
                    "material" : 2
                }
            ]
        }
    ],
    "textures" : [
        {
            "sampler" : 0,
            "source" : 0
        }
    ],
    "images" : [
        {
            "bufferView" : 4,
            "mimeType" : "image/png",
            "name" : "Murom_COA_(Vladimir_Governorate)_(1781)"
        }
    ],
    "accessors" : [
        {
            "bufferView" : 0,
            "componentType" : 5126,
            "count" : 56,
            "max" : [
                0.3971872627735138,
                0,
                0.49837782979011536
            ],
            "min" : [
                -0.3971872627735138,
                -0.05000000074505806,
                -0.4999951422214508
            ],
            "type" : "VEC3"
        },
        {
            "bufferView" : 1,
            "componentType" : 5126,
            "count" : 56,
            "type" : "VEC3"
        },
        {
            "bufferView" : 2,
            "componentType" : 5126,
            "count" : 56,
            "type" : "VEC2"
        },
        {
            "bufferView" : 3,
            "componentType" : 5123,
            "count" : 168,
            "type" : "SCALAR"
        },
        {
            "bufferView" : 5,
            "componentType" : 5126,
            "count" : 142,
            "max" : [
                0.3971872627735138,
                0,
                0.49837782979011536
            ],
            "min" : [
                -0.3971872627735138,
                -0.05000000074505806,
                -0.4999951422214508
            ],
            "type" : "VEC3"
        },
        {
            "bufferView" : 6,
            "componentType" : 5126,
            "count" : 142,
            "type" : "VEC3"
        },
        {
            "bufferView" : 7,
            "componentType" : 5126,
            "count" : 142,
            "type" : "VEC2"
        },
        {
            "bufferView" : 8,
            "componentType" : 5123,
            "count" : 420,
            "type" : "SCALAR"
        },
        {
            "bufferView" : 9,
            "componentType" : 5126,
            "count" : 3318,
            "max" : [
                0.8691914677619934,
                0.00019056533346883953,
                1.039741039276123
            ],
            "min" : [
                -0.8558833003044128,
                -0.04980943724513054,
                -1.2156375646591187
            ],
            "type" : "VEC3"
        },
        {
            "bufferView" : 10,
            "componentType" : 5126,
            "count" : 3318,
            "type" : "VEC3"
        },
        {
            "bufferView" : 11,
            "componentType" : 5126,
            "count" : 3318,
            "type" : "VEC2"
        },
        {
            "bufferView" : 12,
            "componentType" : 5123,
            "count" : 8580,
            "type" : "SCALAR"
        },
        {
            "bufferView" : 13,
            "componentType" : 5126,
            "count" : 241,
            "max" : [
                10
            ],
            "min" : [
                0
            ],
            "type" : "SCALAR"
        },
        {
            "bufferView" : 14,
            "componentType" : 5126,
            "count" : 241,
            "type" : "VEC4"
        }
    ],
    "bufferViews" : [
        {
            "buffer" : 0,
            "byteLength" : 672,
            "byteOffset" : 0
        },
        {
            "buffer" : 0,
            "byteLength" : 672,
            "byteOffset" : 672
        },
        {
            "buffer" : 0,
            "byteLength" : 448,
            "byteOffset" : 1344
        },
        {
            "buffer" : 0,
            "byteLength" : 336,
            "byteOffset" : 1792
        },
        {
            "buffer" : 0,
            "byteLength" : 11993,
            "byteOffset" : 2128
        },
        {
            "buffer" : 0,
            "byteLength" : 1704,
            "byteOffset" : 14124
        },
        {
            "buffer" : 0,
            "byteLength" : 1704,
            "byteOffset" : 15828
        },
        {
            "buffer" : 0,
            "byteLength" : 1136,
            "byteOffset" : 17532
        },
        {
            "buffer" : 0,
            "byteLength" : 840,
            "byteOffset" : 18668
        },
        {
            "buffer" : 0,
            "byteLength" : 39816,
            "byteOffset" : 19508
        },
        {
            "buffer" : 0,
            "byteLength" : 39816,
            "byteOffset" : 59324
        },
        {
            "buffer" : 0,
            "byteLength" : 26544,
            "byteOffset" : 99140
        },
        {
            "buffer" : 0,
            "byteLength" : 17160,
            "byteOffset" : 125684
        },
        {
            "buffer" : 0,
            "byteLength" : 964,
            "byteOffset" : 142844
        },
        {
            "buffer" : 0,
            "byteLength" : 3856,
            "byteOffset" : 143808
        }
    ],
    "samplers" : [
        {
            "magFilter" : 9729,
            "minFilter" : 9987
        }
    ],
    "buffers" : [
        {
            "byteLength" : 147664,
            "uri" : "data:application/octet-stream;base64,"
        }
    ]
}
