{
    "asset" : {
        "generator" : "Khronos glTF Blender I/O v3.2.43",
        "version" : "2.0"
    },
    "scene" : 0,
    "scenes" : [
        {
            "name" : "Scene",
            "nodes" : [
                0,
                1
            ]
        }
    ],
    "nodes" : [
        {
            "mesh" : 0,
            "name" : "Plane042_Flower_0"
        },
        {
            "mesh" : 1,
            "name" : "Plane042_Flower_0.001"
        }
    ],
    "animations" : [
        {
            "channels" : [
                {
                    "sampler" : 0,
                    "target" : {
                        "node" : 0,
                        "path" : "weights"
                    }
                }
            ],
            "name" : "Key.001Action",
            "samplers" : [
                {
                    "input" : 21,
                    "interpolation" : "LINEAR",
                    "output" : 22
                }
            ]
        },
        {
            "channels" : [
                {
                    "sampler" : 0,
                    "target" : {
                        "node" : 0,
                        "path" : "translation"
                    }
                },
                {
                    "sampler" : 1,
                    "target" : {
                        "node" : 0,
                        "path" : "rotation"
                    }
                }
            ],
            "name" : "Plane042_Flower_0Action",
            "samplers" : [
                {
                    "input" : 23,
                    "interpolation" : "STEP",
                    "output" : 24
                },
                {
                    "input" : 23,
                    "interpolation" : "STEP",
                    "output" : 25
                }
            ]
        },
        {
            "channels" : [
                {
                    "sampler" : 0,
                    "target" : {
                        "node" : 1,
                        "path" : "weights"
                    }
                }
            ],
            "name" : "Key.001Action.001",
            "samplers" : [
                {
                    "input" : 21,
                    "interpolation" : "LINEAR",
                    "output" : 26
                }
            ]
        },
        {
            "channels" : [
                {
                    "sampler" : 0,
                    "target" : {
                        "node" : 1,
                        "path" : "translation"
                    }
                },
                {
                    "sampler" : 1,
                    "target" : {
                        "node" : 1,
                        "path" : "rotation"
                    }
                }
            ],
            "name" : "Plane042_Flower_0Action.001",
            "samplers" : [
                {
                    "input" : 23,
                    "interpolation" : "STEP",
                    "output" : 27
                },
                {
                    "input" : 23,
                    "interpolation" : "STEP",
                    "output" : 28
                }
            ]
        }
    ],
    "materials" : [
        {
            "alphaMode" : "BLEND",
            "doubleSided" : true,
            "name" : "Flower",
            "pbrMetallicRoughness" : {
                "baseColorTexture" : {
                    "index" : 0
                },
                "metallicFactor" : 0,
                "roughnessFactor" : 0.8929713368415833
            }
        }
    ],
    "meshes" : [
        {
            "extras" : {
                "targetNames" : [
                    "Key 1",
                    "Key 2",
                    "Key 3"
                ]
            },
            "name" : "Plane042_Flower_0",
            "primitives" : [
                {
                    "attributes" : {
                        "POSITION" : 0,
                        "NORMAL" : 1,
                        "TEXCOORD_0" : 2,
                        "TEXCOORD_1" : 3
                    },
                    "indices" : 4,
                    "material" : 0,
                    "targets" : [
                        {
                            "POSITION" : 5,
                            "NORMAL" : 6
                        },
                        {
                            "POSITION" : 7,
                            "NORMAL" : 8
                        },
                        {
                            "POSITION" : 9,
                            "NORMAL" : 10
                        }
                    ]
                }
            ],
            "weights" : [
                0,
                0,
                0
            ]
        },
        {
            "extras" : {
                "targetNames" : [
                    "Key 1",
                    "Key 2",
                    "Key 3"
                ]
            },
            "name" : "Plane042_Flower_0.001",
            "primitives" : [
                {
                    "attributes" : {
                        "POSITION" : 11,
                        "NORMAL" : 12,
                        "TEXCOORD_0" : 13,
                        "TEXCOORD_1" : 14
                    },
                    "indices" : 4,
                    "material" : 0,
                    "targets" : [
                        {
                            "POSITION" : 15,
                            "NORMAL" : 16
                        },
                        {
                            "POSITION" : 17,
                            "NORMAL" : 18
                        },
                        {
                            "POSITION" : 19,
                            "NORMAL" : 20
                        }
                    ]
                }
            ],
            "weights" : [
                0,
                0,
                0
            ]
        }
    ],
    "textures" : [
        {
            "sampler" : 0,
            "source" : 0
        }
    ],
    "images" : [
        {
            "bufferView" : 5,
            "mimeType" : "image/png",
            "name" : "Image_0"
        }
    ],
    "accessors" : [
        {
            "bufferView" : 0,
            "componentType" : 5126,
            "count" : 288,
            "max" : [
                0.17608274519443512,
                0.272372305393219,
                0.5764858722686768
            ],
            "min" : [
                -0.4185603857040405,
                -0.28007519245147705,
                -0.6997101902961731
            ],
            "type" : "VEC3"
        },
        {
            "bufferView" : 1,
            "componentType" : 5126,
            "count" : 288,
            "type" : "VEC3"
        },
        {
            "bufferView" : 2,
            "componentType" : 5126,
            "count" : 288,
            "type" : "VEC2"
        },
        {
            "bufferView" : 3,
            "componentType" : 5126,
            "count" : 288,
            "type" : "VEC2"
        },
        {
            "bufferView" : 4,
            "componentType" : 5123,
            "count" : 1104,
            "type" : "SCALAR"
        },
        {
            "bufferView" : 6,
            "componentType" : 5126,
            "count" : 288,
            "max" : [
                0,
                1.4901161193847656e-08,
                0.18760374188423157
            ],
            "min" : [
                -0.06174302101135254,
                -2.9802322387695312e-08,
                0
            ],
            "type" : "VEC3"
        },
        {
            "bufferView" : 7,
            "componentType" : 5126,
            "count" : 288,
            "type" : "VEC3"
        },
        {
            "bufferView" : 8,
            "componentType" : 5126,
            "count" : 288,
            "max" : [
                0.17344553768634796,
                0.09563328325748444,
                0.07210874557495117
            ],
            "min" : [
                0,
                0,
                0
            ],
            "type" : "VEC3"
        },
        {
            "bufferView" : 9,
            "componentType" : 5126,
            "count" : 288,
            "type" : "VEC3"
        },
        {
            "bufferView" : 10,
            "componentType" : 5126,
            "count" : 288,
            "max" : [
                0,
                0.0044649094343185425,
                0.12501803040504456
            ],
            "min" : [
                -0.09072232246398926,
                0,
                0
            ],
            "type" : "VEC3"
        },
        {
            "bufferView" : 11,
            "componentType" : 5126,
            "count" : 288,
            "type" : "VEC3"
        },
        {
            "bufferView" : 12,
            "componentType" : 5126,
            "count" : 288,
            "max" : [
                0.2779538631439209,
                0.19933009147644043,
                0.5958123803138733
            ],
            "min" : [
                -0.05577060580253601,
                -0.12525419890880585,
                -0.13818895816802979
            ],
            "type" : "VEC3"
        },
        {
            "bufferView" : 13,
            "componentType" : 5126,
            "count" : 288,
            "type" : "VEC3"
        },
        {
            "bufferView" : 14,
            "componentType" : 5126,
            "count" : 288,
            "type" : "VEC2"
        },
        {
            "bufferView" : 15,
            "componentType" : 5126,
            "count" : 288,
            "type" : "VEC2"
        },
        {
            "bufferView" : 16,
            "componentType" : 5126,
            "count" : 288,
            "max" : [
                0,
                1.4901161193847656e-08,
                0.18760372698307037
            ],
            "min" : [
                -0.06174302101135254,
                -2.2351741790771484e-08,
                0
            ],
            "type" : "VEC3"
        },
        {
            "bufferView" : 17,
            "componentType" : 5126,
            "count" : 288,
            "type" : "VEC3"
        },
        {
            "bufferView" : 18,
            "componentType" : 5126,
            "count" : 288,
            "max" : [
                0.17344552278518677,
                0.09563327580690384,
                0.07210873812437057
            ],
            "min" : [
                0,
                0,
                0
            ],
            "type" : "VEC3"
        },
        {
            "bufferView" : 19,
            "componentType" : 5126,
            "count" : 288,
            "type" : "VEC3"
        },
        {
            "bufferView" : 20,
            "componentType" : 5126,
            "count" : 288,
            "max" : [
                0,
                0.0044649019837379456,
                0.12501803040504456
            ],
            "min" : [
                -0.09072232246398926,
                0,
                0
            ],
            "type" : "VEC3"
        },
        {
            "bufferView" : 21,
            "componentType" : 5126,
            "count" : 288,
            "type" : "VEC3"
        },
        {
            "bufferView" : 22,
            "componentType" : 5126,
            "count" : 311,
            "max" : [
                12.916666666666666
            ],
            "min" : [
                0
            ],
            "type" : "SCALAR"
        },
        {
            "bufferView" : 23,
            "componentType" : 5126,
            "count" : 933,
            "type" : "SCALAR"
        },
        {
            "bufferView" : 24,
            "componentType" : 5126,
            "count" : 1,
            "max" : [
                0
            ],
            "min" : [
                0
            ],
            "type" : "SCALAR"
        },
        {
            "bufferView" : 25,
            "componentType" : 5126,
            "count" : 1,
            "type" : "VEC3"
        },
        {
            "bufferView" : 26,
            "componentType" : 5126,
            "count" : 1,
            "type" : "VEC4"
        },
        {
            "bufferView" : 27,
            "componentType" : 5126,
            "count" : 933,
            "type" : "SCALAR"
        },
        {
            "bufferView" : 28,
            "componentType" : 5126,
            "count" : 1,
            "type" : "VEC3"
        },
        {
            "bufferView" : 29,
            "componentType" : 5126,
            "count" : 1,
            "type" : "VEC4"
        }
    ],
    "bufferViews" : [
        {
            "buffer" : 0,
            "byteLength" : 3456,
            "byteOffset" : 0
        },
        {
            "buffer" : 0,
            "byteLength" : 3456,
            "byteOffset" : 3456
        },
        {
            "buffer" : 0,
            "byteLength" : 2304,
            "byteOffset" : 6912
        },
        {
            "buffer" : 0,
            "byteLength" : 2304,
            "byteOffset" : 9216
        },
        {
            "buffer" : 0,
            "byteLength" : 2208,
            "byteOffset" : 11520
        },
        {
            "buffer" : 0,
            "byteLength" : 1617777,
            "byteOffset" : 13728
        },
        {
            "buffer" : 0,
            "byteLength" : 3456,
            "byteOffset" : 1631508
        },
        {
            "buffer" : 0,
            "byteLength" : 3456,
            "byteOffset" : 1634964
        },
        {
            "buffer" : 0,
            "byteLength" : 3456,
            "byteOffset" : 1638420
        },
        {
            "buffer" : 0,
            "byteLength" : 3456,
            "byteOffset" : 1641876
        },
        {
            "buffer" : 0,
            "byteLength" : 3456,
            "byteOffset" : 1645332
        },
        {
            "buffer" : 0,
            "byteLength" : 3456,
            "byteOffset" : 1648788
        },
        {
            "buffer" : 0,
            "byteLength" : 3456,
            "byteOffset" : 1652244
        },
        {
            "buffer" : 0,
            "byteLength" : 3456,
            "byteOffset" : 1655700
        },
        {
            "buffer" : 0,
            "byteLength" : 2304,
            "byteOffset" : 1659156
        },
        {
            "buffer" : 0,
            "byteLength" : 2304,
            "byteOffset" : 1661460
        },
        {
            "buffer" : 0,
            "byteLength" : 3456,
            "byteOffset" : 1663764
        },
        {
            "buffer" : 0,
            "byteLength" : 3456,
            "byteOffset" : 1667220
        },
        {
            "buffer" : 0,
            "byteLength" : 3456,
            "byteOffset" : 1670676
        },
        {
            "buffer" : 0,
            "byteLength" : 3456,
            "byteOffset" : 1674132
        },
        {
            "buffer" : 0,
            "byteLength" : 3456,
            "byteOffset" : 1677588
        },
        {
            "buffer" : 0,
            "byteLength" : 3456,
            "byteOffset" : 1681044
        },
        {
            "buffer" : 0,
            "byteLength" : 1244,
            "byteOffset" : 1684500
        },
        {
            "buffer" : 0,
            "byteLength" : 3732,
            "byteOffset" : 1685744
        },
        {
            "buffer" : 0,
            "byteLength" : 4,
            "byteOffset" : 1689476
        },
        {
            "buffer" : 0,
            "byteLength" : 12,
            "byteOffset" : 1689480
        },
        {
            "buffer" : 0,
            "byteLength" : 16,
            "byteOffset" : 1689492
        },
        {
            "buffer" : 0,
            "byteLength" : 3732,
            "byteOffset" : 1689508
        },
        {
            "buffer" : 0,
            "byteLength" : 12,
            "byteOffset" : 1693240
        },
        {
            "buffer" : 0,
            "byteLength" : 16,
            "byteOffset" : 1693252
        }
    ],
    "samplers" : [
        {
            "magFilter" : 9729,
            "minFilter" : 9987
        }
    ],
    "buffers" : [
        {
            "byteLength" : 1693268,
            "uri" : "data:application/octet-stream;base64,"
        }
    ]
}
