{
    "asset" : {
        "generator" : "Khronos glTF Blender I/O v3.2.43",
        "version" : "2.0"
    },
    "scene" : 0,
    "scenes" : [
        {
            "name" : "Scene",
            "nodes" : [
                0
            ]
        }
    ],
    "nodes" : [
        {
            "mesh" : 0,
            "name" : "Plane.003",
            "translation" : [
                -0.08708734065294266,
                -0.0005694149294868112,
                -0.16686275601387024
            ]
        }
    ],
    "animations" : [
        {
            "channels" : [
                {
                    "sampler" : 0,
                    "target" : {
                        "node" : 0,
                        "path" : "rotation"
                    }
                }
            ],
            "name" : "Plane.003Action.001",
            "samplers" : [
                {
                    "input" : 12,
                    "interpolation" : "LINEAR",
                    "output" : 13
                }
            ]
        }
    ],
    "materials" : [
        {
            "doubleSided" : true,
            "name" : "Material.001",
            "pbrMetallicRoughness" : {
                "baseColorTexture" : {
                    "index" : 0
                },
                "metallicFactor" : 0,
                "roughnessFactor" : 0.5
            }
        },
        {
            "doubleSided" : true,
            "name" : "Material.002",
            "pbrMetallicRoughness" : {
                "baseColorFactor" : [
                    0.800000011920929,
                    0.800000011920929,
                    0.800000011920929,
                    1
                ],
                "metallicFactor" : 0,
                "roughnessFactor" : 0.5
            }
        },
        {
            "doubleSided" : true,
            "name" : "red",
            "pbrMetallicRoughness" : {
                "baseColorFactor" : [
                    0.9848872423171997,
                    0.034045178443193436,
                    0.012386533431708813,
                    1
                ],
                "metallicFactor" : 0.5196850299835205,
                "roughnessFactor" : 0.5
            }
        }
    ],
    "meshes" : [
        {
            "name" : "Plane.006",
            "primitives" : [
                {
                    "attributes" : {
                        "POSITION" : 0,
                        "NORMAL" : 1,
                        "TEXCOORD_0" : 2
                    },
                    "indices" : 3,
                    "material" : 0
                },
                {
                    "attributes" : {
                        "POSITION" : 4,
                        "NORMAL" : 5,
                        "TEXCOORD_0" : 6
                    },
                    "indices" : 7,
                    "material" : 1
                },
                {
                    "attributes" : {
                        "POSITION" : 8,
                        "NORMAL" : 9,
                        "TEXCOORD_0" : 10
                    },
                    "indices" : 11,
                    "material" : 2
                }
            ]
        }
    ],
    "textures" : [
        {
            "sampler" : 0,
            "source" : 0
        }
    ],
    "images" : [
        {
            "bufferView" : 4,
            "mimeType" : "image/png",
            "name" : "Coat_of_Arms_of_Gorokhovets_(Vladimirskaya_oblast)"
        }
    ],
    "accessors" : [
        {
            "bufferView" : 0,
            "componentType" : 5126,
            "count" : 53,
            "max" : [
                0.3859121799468994,
                0,
                0.4842301905155182
            ],
            "min" : [
                -0.3859121799468994,
                -0.03494697064161301,
                -0.4858016073703766
            ],
            "type" : "VEC3"
        },
        {
            "bufferView" : 1,
            "componentType" : 5126,
            "count" : 53,
            "type" : "VEC3"
        },
        {
            "bufferView" : 2,
            "componentType" : 5126,
            "count" : 53,
            "type" : "VEC2"
        },
        {
            "bufferView" : 3,
            "componentType" : 5123,
            "count" : 165,
            "type" : "SCALAR"
        },
        {
            "bufferView" : 5,
            "componentType" : 5126,
            "count" : 143,
            "max" : [
                0.3859121799468994,
                0,
                0.4842301905155182
            ],
            "min" : [
                -0.3859121799468994,
                -0.03494697064161301,
                -0.4858016073703766
            ],
            "type" : "VEC3"
        },
        {
            "bufferView" : 6,
            "componentType" : 5126,
            "count" : 143,
            "type" : "VEC3"
        },
        {
            "bufferView" : 7,
            "componentType" : 5126,
            "count" : 143,
            "type" : "VEC2"
        },
        {
            "bufferView" : 8,
            "componentType" : 5123,
            "count" : 423,
            "type" : "SCALAR"
        },
        {
            "bufferView" : 9,
            "componentType" : 5126,
            "count" : 4336,
            "max" : [
                1.0052809715270996,
                0.00018515565898269415,
                1.018604040145874
            ],
            "min" : [
                -0.9707368612289429,
                -0.058059800416231155,
                -1.1811290979385376
            ],
            "type" : "VEC3"
        },
        {
            "bufferView" : 10,
            "componentType" : 5126,
            "count" : 4336,
            "type" : "VEC3"
        },
        {
            "bufferView" : 11,
            "componentType" : 5126,
            "count" : 4336,
            "type" : "VEC2"
        },
        {
            "bufferView" : 12,
            "componentType" : 5123,
            "count" : 11688,
            "type" : "SCALAR"
        },
        {
            "bufferView" : 13,
            "componentType" : 5126,
            "count" : 241,
            "max" : [
                10
            ],
            "min" : [
                0
            ],
            "type" : "SCALAR"
        },
        {
            "bufferView" : 14,
            "componentType" : 5126,
            "count" : 241,
            "type" : "VEC4"
        }
    ],
    "bufferViews" : [
        {
            "buffer" : 0,
            "byteLength" : 636,
            "byteOffset" : 0
        },
        {
            "buffer" : 0,
            "byteLength" : 636,
            "byteOffset" : 636
        },
        {
            "buffer" : 0,
            "byteLength" : 424,
            "byteOffset" : 1272
        },
        {
            "buffer" : 0,
            "byteLength" : 330,
            "byteOffset" : 1696
        },
        {
            "buffer" : 0,
            "byteLength" : 13738,
            "byteOffset" : 2028
        },
        {
            "buffer" : 0,
            "byteLength" : 1716,
            "byteOffset" : 15768
        },
        {
            "buffer" : 0,
            "byteLength" : 1716,
            "byteOffset" : 17484
        },
        {
            "buffer" : 0,
            "byteLength" : 1144,
            "byteOffset" : 19200
        },
        {
            "buffer" : 0,
            "byteLength" : 846,
            "byteOffset" : 20344
        },
        {
            "buffer" : 0,
            "byteLength" : 52032,
            "byteOffset" : 21192
        },
        {
            "buffer" : 0,
            "byteLength" : 52032,
            "byteOffset" : 73224
        },
        {
            "buffer" : 0,
            "byteLength" : 34688,
            "byteOffset" : 125256
        },
        {
            "buffer" : 0,
            "byteLength" : 23376,
            "byteOffset" : 159944
        },
        {
            "buffer" : 0,
            "byteLength" : 964,
            "byteOffset" : 183320
        },
        {
            "buffer" : 0,
            "byteLength" : 3856,
            "byteOffset" : 184284
        }
    ],
    "samplers" : [
        {
            "magFilter" : 9729,
            "minFilter" : 9987
        }
    ],
    "buffers" : [
        {
            "byteLength" : 188140,
            "uri" : "data:application/octet-stream;base64,"
        }
    ]
}
